<?xml version="1.0" standalone="no"?>
<!DOCTYPE svg PUBLIC "-//W3C//DTD SVG 20010904//EN"
 "http://www.w3.org/TR/2001/REC-SVG-20010904/DTD/svg10.dtd">
<svg version="1.0" xmlns="http://www.w3.org/2000/svg"
 width="656.000000pt" height="656.000000pt" viewBox="0 0 656.000000 656.000000"
 preserveAspectRatio="xMidYMid meet">

<g transform="translate(0.000000,656.000000) scale(0.100000,-0.100000)"
fill="#000000" stroke="none">
<path d="M3105 6534 c-569 -43 -1036 -184 -1481 -445 -1510 -886 -2059 -2806
-1245 -4354 430 -818 1187 -1418 2086 -1650 292 -75 342 -80 815 -80 473 0
523 5 815 80 1164 301 2074 1215 2363 2375 69 277 96 499 96 800 0 384 -53
708 -171 1055 -415 1213 -1475 2061 -2758 2205 -98 11 -440 20 -520 14z m610
-453 c504 -82 957 -281 1348 -594 131 -104 340 -313 444 -444 409 -511 623
-1125 623 -1783 0 -473 -100 -889 -315 -1306 -137 -268 -299 -489 -520 -709
-444 -445 -976 -712 -1615 -812 -91 -14 -175 -18 -400 -18 -305 0 -390 9 -628
61 -409 91 -819 288 -1155 557 -127 101 -337 311 -439 437 -411 510 -628 1130
-628 1790 0 472 99 885 314 1305 133 262 299 489 521 710 213 214 435 378 688
510 343 179 648 269 1077 319 19 2 152 3 295 1 205 -3 287 -8 390 -24z"/>
<path d="M3140 5135 c-176 -17 -288 -38 -410 -79 -531 -174 -941 -549 -1149
-1050 -65 -156 -112 -339 -127 -489 -3 -37 -10 -70 -15 -73 -12 -7 -12 -291 0
-298 5 -3 12 -36 15 -73 26 -269 135 -563 297 -804 144 -215 365 -428 569
-549 74 -44 265 -140 279 -140 6 0 19 -4 29 -10 46 -25 207 -69 355 -96 130
-25 400 -30 537 -10 424 60 767 227 1061 516 167 165 272 312 373 523 90 186
127 314 166 558 22 141 9 454 -25 614 -47 221 -152 471 -271 647 -322 474
-847 779 -1404 813 -52 3 -106 7 -120 9 -14 2 -86 -2 -160 -9z m340 -250 c204
-27 339 -67 508 -149 425 -209 752 -614 857 -1063 68 -290 60 -575 -26 -852
-21 -66 -23 -73 -54 -146 -112 -265 -298 -499 -542 -680 -150 -111 -411 -229
-588 -265 -33 -6 -82 -17 -110 -23 -69 -15 -415 -13 -490 2 -204 43 -299 73
-435 138 -327 156 -592 420 -755 751 -182 369 -213 779 -89 1173 131 419 438
775 833 966 127 61 198 87 301 111 25 6 59 14 75 18 138 33 349 41 515 19z"/>
<path d="M3355 4336 c-38 -7 -79 -16 -90 -20 -101 -38 -188 -108 -235 -191
-54 -94 -61 -132 -67 -362 l-6 -213 -156 0 c-86 0 -162 -4 -169 -8 -9 -7 -12
-52 -10 -193 l3 -184 165 -5 165 -5 3 -487 2 -488 195 0 c149 0 195 3 195 13
0 6 1 226 3 487 l2 475 160 3 c88 1 163 6 168 11 4 4 12 41 17 82 5 41 14 114
20 164 6 49 13 100 16 112 l6 23 -193 2 -194 3 1 160 c1 179 9 206 65 246 29
20 48 23 178 28 l146 6 3 166 2 166 -62 6 c-148 15 -266 16 -333 3z"/>
</g>
</svg>
