<?xml version="1.0" standalone="no"?>
<!DOCTYPE svg PUBLIC "-//W3C//DTD SVG 20010904//EN"
 "http://www.w3.org/TR/2001/REC-SVG-20010904/DTD/svg10.dtd">
<svg version="1.0" xmlns="http://www.w3.org/2000/svg"
 width="656.000000pt" height="656.000000pt" viewBox="0 0 656.000000 656.000000"
 preserveAspectRatio="xMidYMid meet">

<g transform="translate(0.000000,656.000000) scale(0.100000,-0.100000)"
fill="#000000" stroke="none">
<path d="M3015 6549 c-582 -48 -1152 -255 -1629 -592 -358 -253 -688 -608
-913 -982 -247 -410 -394 -845 -455 -1345 -17 -136 -17 -564 0 -700 39 -315
107 -592 212 -856 391 -981 1228 -1716 2248 -1973 278 -71 489 -96 802 -96
248 0 361 9 570 46 673 117 1290 444 1771 935 253 260 431 510 593 833 175
349 278 696 328 1111 16 136 16 564 0 700 -38 314 -107 592 -212 856 -534
1341 -1883 2180 -3315 2063z m685 -448 c1150 -176 2076 -1021 2351 -2146 59
-241 73 -372 73 -675 0 -303 -14 -434 -73 -675 -253 -1033 -1063 -1843 -2096
-2096 -241 -59 -372 -73 -675 -73 -303 0 -434 14 -675 73 -1033 253 -1843
1063 -2096 2096 -59 241 -73 372 -73 675 0 303 14 434 73 675 276 1127 1218
1984 2356 2145 197 28 204 28 465 25 173 -3 270 -9 370 -24z"/>
<path d="M2440 4625 c-285 -57 -505 -288 -550 -575 -8 -54 -10 -299 -8 -865
l3 -790 28 -80 c78 -221 236 -379 454 -453 l78 -27 840 0 840 0 80 27 c112 38
197 91 279 174 83 82 136 167 174 279 l27 80 0 840 0 840 -27 78 c-74 218
-232 376 -453 454 l-80 28 -810 2 c-636 1 -824 -1 -875 -12z m1681 -213 c165
-43 300 -180 344 -347 22 -87 23 -1571 0 -1658 -23 -89 -62 -156 -129 -223
-67 -67 -134 -106 -223 -129 -87 -23 -1571 -22 -1658 0 -167 44 -304 179 -347
344 -15 60 -17 141 -17 828 -1 520 3 779 10 815 37 179 184 331 362 374 39 9
241 12 822 13 696 0 776 -2 836 -17z"/>
<path d="M4014 4134 c-37 -18 -64 -62 -64 -104 0 -90 90 -146 170 -105 41 21
60 53 60 103 0 52 -23 90 -67 108 -41 18 -60 17 -99 -2z"/>
<path d="M3130 3974 c-147 -32 -264 -96 -376 -208 -148 -148 -223 -326 -224
-529 0 -202 74 -382 218 -530 156 -159 349 -235 571 -224 122 6 197 24 298 73
188 90 343 276 398 479 10 33 19 108 22 166 11 222 -65 415 -224 571 -76 74
-150 124 -239 161 -128 54 -307 71 -444 41z m285 -209 c199 -51 364 -220 404
-413 70 -341 -185 -661 -526 -662 -156 0 -285 53 -392 160 -115 114 -167 253
-158 415 19 340 345 583 672 500z"/>
</g>
</svg>
