<?xml version="1.0" standalone="no"?>
<!DOCTYPE svg PUBLIC "-//W3C//DTD SVG 20010904//EN"
 "http://www.w3.org/TR/2001/REC-SVG-20010904/DTD/svg10.dtd">
<svg version="1.0" xmlns="http://www.w3.org/2000/svg"
 width="660.000000pt" height="209.000000pt" viewBox="0 0 660.000000 209.000000"
 preserveAspectRatio="xMidYMid meet">

<g transform="translate(0.000000,209.000000) scale(0.100000,-0.100000)"
fill="#000000" stroke="none">
<path d="M2 1375 l3 -707 185 -109 185 -108 3 479 c1 264 4 480 6 480 4 0 823
-483 886 -523 12 -7 100 41 360 196 190 112 392 232 450 265 l105 62 5 -481 5
-480 175 102 c96 55 181 106 188 113 9 9 12 161 10 714 l-3 702 -395 -233
c-217 -128 -505 -298 -640 -377 -134 -80 -246 -144 -250 -143 -3 1 -273 160
-600 353 -327 194 -614 363 -638 377 l-42 25 2 -707z"/>
<path d="M935 1660 l349 -209 57 32 c31 18 189 111 352 207 l295 175 -174 3
-174 2 -170 -100 c-93 -55 -174 -100 -180 -100 -6 0 -87 45 -179 100 l-166
100 -180 0 -180 0 350 -210z"/>
<path d="M3373 1801 c-89 -23 -135 -75 -140 -158 -7 -102 44 -147 210 -189 45
-11 71 -23 78 -36 30 -56 -81 -67 -177 -18 l-59 30 -42 -48 c-49 -56 -46 -64
50 -108 54 -25 74 -28 157 -29 79 0 102 4 137 22 77 41 110 125 83 207 -16 50
-67 81 -181 114 -98 29 -123 48 -99 77 19 23 101 15 160 -15 23 -12 43 -20 44
-18 63 87 68 98 57 112 -35 42 -201 77 -278 57z"/>
<path d="M3921 1778 c-5 -13 -55 -131 -111 -263 -56 -132 -104 -246 -107 -253
-4 -10 13 -12 77 -10 l82 3 18 45 18 45 104 3 105 3 21 -51 21 -50 80 0 c45 0
81 1 81 3 0 2 -51 124 -114 272 l-114 270 -76 3 c-71 3 -77 1 -85 -20z m133
-285 c7 -22 5 -23 -48 -23 -31 0 -56 4 -56 9 0 5 7 26 16 47 9 22 21 50 26 64
10 24 11 24 33 -25 12 -27 25 -60 29 -72z"/>
<path d="M4370 1525 l0 -275 205 0 205 0 0 65 0 65 -130 0 -130 0 0 210 0 210
-75 0 -75 0 0 -275z"/>
<path d="M4928 1542 c-59 -141 -110 -265 -114 -274 -6 -16 2 -18 74 -18 l80 0
18 50 18 50 104 0 104 0 21 -50 21 -50 82 0 82 0 -90 213 c-49 116 -101 240
-116 275 l-26 62 -75 0 -76 -1 -107 -257z m213 1 l26 -68 -28 -3 c-16 -2 -42
-2 -58 0 l-28 3 26 68 c14 37 28 67 31 67 3 0 17 -30 31 -67z"/>
<path d="M2830 1235 l0 -495 75 0 75 0 0 495 0 495 -75 0 -75 0 0 -495z"/>
<path d="M3220 930 l0 -292 158 4 c190 6 232 18 308 92 42 41 56 63 69 110 35
122 -5 248 -99 313 -69 47 -103 55 -278 60 l-158 5 0 -292z m320 249 c76 -16
140 -64 173 -129 26 -49 28 -63 25 -131 -5 -91 -35 -150 -96 -193 -64 -44
-121 -56 -264 -56 l-128 0 0 260 0 260 120 0 c65 0 142 -5 170 -11z"/>
<path d="M3370 930 l0 -150 66 0 c124 0 180 52 172 160 -7 96 -61 140 -173
140 l-65 0 0 -150z m165 101 c65 -37 68 -156 5 -201 -18 -13 -53 -24 -85 -27
l-55 -6 0 133 0 133 53 -7 c28 -4 66 -15 82 -25z"/>
<path d="M3896 1033 c-43 -104 -98 -234 -122 -291 l-44 -103 96 3 96 3 18 45
18 45 96 3 97 3 22 -51 21 -50 93 0 c51 0 93 3 93 8 0 4 -53 133 -119 287
l-118 280 -84 3 -84 2 -79 -187z m331 -86 c56 -133 105 -250 109 -260 6 -16 0
-18 -61 -15 l-67 3 -18 45 -18 45 -114 3 -115 3 -21 -51 -21 -50 -65 0 -65 0
38 88 c21 48 70 165 110 260 l73 172 67 0 66 0 102 -243z"/>
<path d="M4023 977 c-18 -45 -35 -90 -39 -99 -5 -16 2 -18 70 -18 44 0 76 4
76 10 0 9 -70 190 -74 190 0 0 -15 -37 -33 -83z m52 -33 c23 -55 20 -64 -20
-64 -19 0 -35 4 -35 10 0 12 31 90 36 90 2 0 11 -16 19 -36z"/>
<path d="M5137 1178 c-25 -42 -57 -99 -57 -104 0 -2 22 -4 48 -4 42 0 55 6 99
43 29 23 52 45 52 48 1 5 -108 39 -124 39 -2 0 -11 -10 -18 -22z"/>
<path d="M490 1087 l0 -104 610 -362 c336 -199 616 -361 623 -359 19 5 167 92
167 99 0 6 -1383 829 -1393 829 -4 0 -7 -47 -7 -103z"/>
<path d="M1790 1019 c-157 -94 -286 -172 -287 -173 -1 -1 38 -26 87 -55 l90
-53 205 122 205 123 0 103 c0 57 -3 104 -7 104 -5 0 -136 -77 -293 -171z"/>
<path d="M4430 915 l0 -275 75 0 74 0 3 152 3 152 64 -97 c35 -53 67 -97 71
-97 5 0 38 46 74 102 l66 103 0 -158 0 -157 75 0 75 0 0 275 0 275 -79 0 -79
0 -65 -106 -65 -107 -37 59 c-20 33 -50 80 -66 107 l-29 47 -80 0 -80 0 0
-275z"/>
<path d="M5320 916 l0 -276 120 0 c176 0 250 19 318 84 94 88 108 241 31 352
-21 31 -47 52 -96 76 -64 31 -70 32 -219 36 l-154 4 0 -276z m326 91 c29 -32
34 -44 34 -88 0 -94 -50 -139 -154 -139 l-56 0 0 136 0 136 71 -4 c67 -4 73
-6 105 -41z"/>
<path d="M5860 915 l0 -276 141 3 141 3 18 45 18 45 107 0 107 0 18 -45 18
-45 81 -3 c44 -2 81 -1 81 1 0 2 -51 125 -114 273 l-113 269 -75 3 -75 3 -101
-238 -101 -238 -1 238 0 237 -75 0 -75 0 0 -275z m459 12 c11 -32 21 -60 21
-62 0 -3 -25 -5 -55 -5 -30 0 -55 2 -55 5 0 19 54 135 60 128 4 -4 17 -34 29
-66z"/>
<path d="M5090 825 l0 -185 75 0 75 0 0 185 0 185 -75 0 -75 0 0 -185z"/>
<path d="M490 578 l0 -104 400 -237 400 -238 90 54 91 54 -476 282 c-261 155
-482 284 -490 287 -13 5 -15 -9 -15 -98z"/>
<path d="M2045 656 c-11 -8 -40 -26 -63 -41 l-44 -26 72 -45 c40 -24 74 -44
76 -44 2 0 4 38 4 85 0 90 -5 97 -45 71z"/>
</g>
</svg>
