<?xml version="1.0" standalone="no"?>
<!DOCTYPE svg PUBLIC "-//W3C//DTD SVG 20010904//EN"
 "http://www.w3.org/TR/2001/REC-SVG-20010904/DTD/svg10.dtd">
<svg version="1.0" xmlns="http://www.w3.org/2000/svg"
 width="656.000000pt" height="656.000000pt" viewBox="0 0 656.000000 656.000000"
 preserveAspectRatio="xMidYMid meet">

<g transform="translate(0.000000,656.000000) scale(0.100000,-0.100000)"
fill="#000000" stroke="none">
<path d="M3105 6544 c-244 -18 -430 -47 -625 -96 -1164 -290 -2088 -1214
-2378 -2378 -69 -277 -96 -499 -96 -800 0 -384 53 -708 171 -1055 415 -1213
1476 -2062 2758 -2205 116 -13 574 -13 690 0 1282 143 2343 992 2758 2205 118
347 171 671 171 1055 0 384 -53 708 -171 1055 -415 1213 -1475 2061 -2758
2205 -98 11 -440 20 -520 14z m610 -453 c504 -82 957 -281 1348 -594 131 -104
340 -313 444 -444 409 -511 623 -1125 623 -1783 0 -473 -100 -889 -315 -1306
-137 -268 -299 -489 -520 -709 -444 -445 -976 -712 -1615 -812 -91 -14 -175
-18 -400 -18 -305 0 -390 9 -628 61 -409 91 -819 288 -1155 557 -127 101 -337
311 -439 437 -411 510 -628 1130 -628 1790 0 472 99 885 314 1305 133 262 299
489 521 710 213 214 435 378 688 510 343 179 648 269 1077 319 19 2 152 3 295
1 205 -3 287 -8 390 -24z"/>
<path d="M3040 5009 c-559 -72 -1034 -401 -1284 -889 -134 -262 -186 -478
-187 -771 0 -377 111 -709 336 -1008 301 -399 763 -639 1265 -658 439 -17 841
125 1174 415 388 338 604 875 558 1385 -48 521 -309 969 -732 1252 -158 106
-392 207 -565 245 -163 36 -411 49 -565 29z m338 -220 c344 -37 641 -178 882
-419 165 -165 276 -346 349 -565 52 -159 72 -283 72 -455 0 -171 -20 -296 -71
-451 -169 -512 -583 -871 -1125 -976 -135 -26 -387 -23 -525 6 -590 124 -1020
555 -1147 1151 -28 133 -26 421 5 559 48 212 139 416 257 572 126 169 332 342
515 434 89 45 251 101 351 121 162 33 289 39 437 23z"/>
<path d="M3278 3623 c-3 -679 -3 -689 -24 -734 -51 -110 -147 -173 -264 -174
-54 0 -77 6 -132 33 -175 86 -213 309 -74 447 64 64 127 88 220 83 l63 -3 6
145 c2 80 2 149 -1 154 -2 5 -53 6 -111 3 -168 -8 -284 -59 -397 -174 -82 -83
-138 -194 -161 -317 -15 -82 -15 -96 0 -180 58 -328 374 -547 696 -482 102 21
168 50 248 109 74 55 136 130 174 212 56 120 59 145 59 562 0 211 3 383 6 383
3 0 18 -9 33 -19 91 -65 252 -123 379 -136 l62 -7 0 150 0 150 -71 12 c-205
35 -371 200 -402 399 l-11 71 -148 0 -147 0 -3 -687z"/>
</g>
</svg>
