<?xml version="1.0" standalone="no"?>
<!DOCTYPE svg PUBLIC "-//W3C//DTD SVG 20010904//EN"
 "http://www.w3.org/TR/2001/REC-SVG-20010904/DTD/svg10.dtd">
<svg version="1.0" xmlns="http://www.w3.org/2000/svg"
 width="656.000000pt" height="656.000000pt" viewBox="0 0 656.000000 656.000000"
 preserveAspectRatio="xMidYMid meet">

<g transform="translate(0.000000,656.000000) scale(0.100000,-0.100000)"
fill="#000000" stroke="none">
<path d="M3125 6544 c-421 -32 -765 -112 -1105 -256 -1570 -667 -2369 -2434
-1830 -4048 117 -349 269 -643 478 -923 556 -742 1363 -1204 2287 -1307 116
-13 574 -13 690 0 1372 153 2492 1122 2830 2448 76 297 80 339 80 812 0 400
-1 433 -23 552 -120 664 -412 1241 -868 1717 -535 558 -1237 903 -2019 991
-98 11 -440 20 -520 14z m610 -453 c504 -82 957 -281 1348 -594 131 -104 340
-313 444 -444 409 -511 623 -1125 623 -1783 0 -473 -100 -889 -315 -1306 -137
-268 -299 -489 -520 -709 -444 -445 -976 -712 -1615 -812 -91 -14 -175 -18
-400 -18 -305 0 -390 9 -628 61 -409 91 -819 288 -1155 557 -127 101 -337 311
-439 437 -411 510 -628 1130 -628 1790 0 472 99 885 314 1305 133 262 299 489
521 710 213 214 435 378 688 510 343 179 648 269 1077 319 19 2 152 3 295 1
205 -3 287 -8 390 -24z"/>
<path d="M3110 5055 c-239 -27 -404 -76 -625 -186 -396 -196 -675 -501 -868
-949 -23 -53 -64 -194 -88 -300 -31 -137 -38 -472 -14 -626 17 -108 71 -315
100 -380 8 -19 22 -51 31 -71 121 -284 344 -558 609 -749 102 -73 326 -187
458 -233 121 -42 297 -78 453 -92 427 -39 909 111 1254 389 398 321 632 767
671 1277 42 557 -181 1106 -599 1475 -80 71 -223 176 -287 211 -259 142 -482
211 -769 239 -133 12 -177 12 -326 -5z m386 -240 c595 -83 1082 -480 1277
-1042 66 -188 81 -283 81 -508 0 -171 -3 -215 -23 -304 -118 -539 -475 -961
-978 -1155 -431 -167 -907 -133 -1315 93 -133 74 -217 139 -349 270 -226 226
-365 486 -431 809 -31 153 -31 421 0 574 66 322 204 580 431 808 131 132 215
197 349 271 293 163 636 228 958 184z"/>
<path d="M2660 3908 c-166 -15 -222 -53 -260 -174 -34 -112 -45 -227 -44 -479
2 -414 38 -549 164 -603 70 -30 279 -41 759 -42 730 0 839 16 896 136 47 98
70 334 62 609 -9 280 -31 399 -88 468 -71 86 -159 96 -859 95 -289 0 -572 -5
-630 -10z m475 -349 c33 -17 121 -63 195 -102 74 -39 174 -91 223 -115 48 -24
87 -50 87 -57 0 -7 -30 -28 -67 -47 -77 -39 -409 -211 -463 -239 -19 -11 -38
-19 -42 -19 -5 0 -8 137 -8 305 0 168 3 305 8 305 4 0 34 -14 67 -31z"/>
</g>
</svg>
