<?xml version="1.0" standalone="no"?>
<!DOCTYPE svg PUBLIC "-//W3C//DTD SVG 20010904//EN"
 "http://www.w3.org/TR/2001/REC-SVG-20010904/DTD/svg10.dtd">
<svg version="1.0" xmlns="http://www.w3.org/2000/svg"
 width="656.000000pt" height="656.000000pt" viewBox="0 0 656.000000 656.000000"
 preserveAspectRatio="xMidYMid meet">

<g transform="translate(0.000000,656.000000) scale(0.100000,-0.100000)"
fill="#000000" stroke="none">
<path d="M3105 6544 c-421 -32 -765 -112 -1105 -256 -1570 -667 -2369 -2434
-1830 -4048 117 -349 269 -643 478 -923 556 -742 1363 -1204 2287 -1307 116
-13 574 -13 690 0 1282 143 2343 992 2758 2205 118 347 171 671 171 1055 0
384 -53 708 -171 1055 -415 1213 -1475 2061 -2758 2205 -98 11 -440 20 -520
14z m610 -453 c504 -82 957 -281 1348 -594 131 -104 340 -313 444 -444 409
-511 623 -1125 623 -1783 0 -473 -100 -889 -315 -1306 -137 -268 -299 -489
-520 -709 -444 -445 -976 -712 -1615 -812 -91 -14 -175 -18 -400 -18 -305 0
-390 9 -628 61 -409 91 -819 288 -1155 557 -127 101 -337 311 -439 437 -411
510 -628 1130 -628 1790 0 472 99 885 314 1305 133 262 299 489 521 710 213
214 435 378 688 510 343 179 648 269 1077 319 19 2 152 3 295 1 205 -3 287 -8
390 -24z"/>
<path d="M3145 5031 c-6 -4 -53 -14 -105 -20 -143 -18 -249 -45 -420 -107 -38
-14 -155 -68 -180 -84 -8 -5 -46 -28 -85 -51 -224 -135 -440 -352 -582 -584
-24 -41 -133 -264 -133 -274 0 -6 -6 -25 -14 -43 -18 -43 -49 -152 -73 -253
-15 -67 -18 -123 -18 -335 0 -267 3 -292 57 -485 37 -133 98 -274 180 -413 89
-151 266 -360 376 -442 19 -14 39 -29 45 -35 26 -22 126 -95 131 -95 3 0 24
-13 48 -29 83 -54 285 -144 388 -172 19 -5 58 -16 85 -24 182 -51 517 -66 706
-31 217 41 413 107 552 188 26 15 51 28 54 28 3 0 28 16 54 35 27 19 52 35 55
35 12 0 154 118 227 189 90 87 225 257 284 356 38 65 124 250 143 310 13 39
29 85 36 103 8 18 14 41 14 52 0 10 10 58 21 107 19 77 22 117 22 318 0 181
-3 246 -17 305 -9 41 -21 95 -25 120 -5 25 -14 59 -20 75 -5 17 -20 59 -32 95
-20 60 -112 258 -142 305 -99 160 -202 282 -356 425 -227 210 -592 373 -919
411 -57 7 -105 16 -108 21 -7 11 -237 10 -249 -1z m340 -240 c28 -5 75 -15
105 -21 120 -22 311 -91 390 -140 8 -5 29 -16 45 -25 128 -64 350 -259 461
-405 52 -69 53 -70 111 -170 213 -362 258 -822 122 -1233 -21 -62 -77 -195
-91 -213 -4 -6 -20 -33 -34 -60 -54 -102 -142 -213 -261 -331 -67 -68 -127
-123 -132 -123 -5 0 -16 -6 -23 -13 -28 -27 -205 -136 -248 -153 -8 -3 -33
-14 -56 -25 -23 -10 -46 -19 -52 -19 -6 0 -23 -6 -39 -14 -31 -15 -97 -35
-213 -63 -108 -26 -481 -26 -590 0 -155 36 -317 94 -403 143 -23 13 -53 29
-67 36 -123 61 -362 274 -459 408 -58 81 -144 227 -169 290 -13 30 -27 64 -32
75 -18 39 -42 111 -51 155 -5 25 -13 59 -19 75 -14 46 -32 230 -31 330 0 94
22 278 42 355 12 47 21 74 59 175 128 342 404 649 732 812 136 68 149 73 166
73 10 0 22 4 27 9 18 16 142 47 305 76 95 16 320 14 405 -4z"/>
<path d="M3230 4280 c-69 -9 -184 -34 -230 -50 -61 -22 -183 -83 -235 -118
-68 -46 -189 -166 -229 -227 -44 -65 -106 -181 -106 -197 -1 -7 -9 -31 -20
-53 -11 -22 -19 -50 -20 -62 0 -12 -7 -48 -15 -80 -20 -75 -20 -261 0 -336 8
-32 15 -66 15 -75 0 -18 28 -93 68 -181 15 -34 22 -64 18 -80 -16 -78 -27
-123 -45 -186 -11 -38 -25 -90 -32 -115 -6 -25 -18 -63 -25 -85 -15 -43 -18
-75 -8 -75 4 0 27 6 53 14 25 8 66 20 91 26 25 6 71 17 103 25 159 41 184 47
209 52 25 5 91 -15 148 -44 14 -7 32 -13 41 -13 9 0 32 -6 50 -14 19 -8 84
-20 146 -27 296 -33 577 64 783 271 161 161 250 350 272 578 16 165 -11 358
-67 479 -8 17 -15 34 -15 38 0 4 -13 27 -30 52 -16 24 -30 46 -30 49 0 3 -20
31 -44 62 -90 117 -213 219 -336 278 -103 49 -206 78 -335 94 -78 10 -97 10
-175 0z m329 -176 c221 -74 401 -232 490 -429 13 -27 27 -59 32 -70 46 -102
66 -345 34 -435 -8 -23 -15 -51 -15 -62 0 -34 -57 -153 -118 -246 -44 -67
-186 -200 -249 -232 -26 -14 -54 -29 -62 -35 -18 -13 -70 -31 -161 -57 -58
-17 -103 -22 -200 -22 -144 0 -211 15 -353 82 l-87 41 -77 -21 c-127 -34 -197
-48 -211 -43 -17 6 -9 64 21 150 31 91 28 166 -11 238 -113 206 -118 482 -12
707 44 95 89 156 171 238 94 92 183 146 324 197 117 43 356 42 484 -1z"/>
<path d="M2943 3752 c-64 -34 -103 -113 -104 -207 0 -84 19 -133 99 -254 135
-202 336 -352 541 -402 97 -24 118 -24 183 2 70 27 115 77 124 136 7 47 -1 71
-27 84 -56 30 -149 72 -171 79 -25 8 -32 3 -74 -43 -78 -88 -79 -88 -207 -14
-64 38 -217 185 -217 210 0 6 -7 18 -16 28 -14 16 -14 20 0 46 9 15 26 40 38
56 26 32 28 90 5 135 -8 15 -26 53 -41 85 -35 77 -71 92 -133 59z"/>
</g>
</svg>
