<svg version="1.0" xmlns="http://www.w3.org/2000/svg"
 width="30px" height="30px" viewBox="0 0 656.000000 656.000000" icon = "facebook"
 preserveAspectRatio="xMidYMid meet">
<g transform="translate(0.000000,656.000000) scale(0.100000,-0.100000)"
fill="white" stroke="none">
<path d="M3070 6534 c-19 -2 -84 -9 -145 -15 -281 -28 -582 -102 -851 -209
-1251 -498 -2074 -1709 -2074 -3050 0 -966 429 -1885 1170 -2509 466 -392
1034 -648 1631 -735 152 -23 806 -23 958 0 957 140 1811 705 2324 1540 127
207 261 507 332 739 384 1267 -17 2625 -1025 3474 -489 411 -1062 661 -1711
747 -108 14 -534 27 -609 18z m630 -453 c1150 -176 2076 -1021 2351 -2146 59
-241 73 -372 73 -675 0 -303 -14 -434 -73 -675 -253 -1033 -1063 -1843 -2096
-2096 -241 -59 -372 -73 -675 -73 -303 0 -434 14 -675 73 -1033 253 -1843
1063 -2096 2096 -59 241 -73 372 -73 675 0 303 14 434 73 675 276 1127 1218
1984 2356 2145 197 28 204 28 465 25 173 -3 270 -9 370 -24z"/>
<path d="M3105 5139 c-104 -13 -189 -29 -290 -55 -121 -31 -138 -36 -230 -75
-349 -145 -655 -399 -857 -714 -136 -211 -232 -463 -268 -702 -7 -43 -16 -86
-21 -95 -12 -23 -12 -383 0 -406 5 -9 14 -51 20 -92 26 -174 97 -393 174 -540
94 -181 182 -303 312 -439 295 -306 643 -489 1065 -557 125 -20 433 -20 555 0
408 67 747 240 1034 526 554 555 697 1394 356 2107 -218 456 -620 807 -1107
963 -231 75 -523 106 -743 79z m330 -254 c238 -18 503 -109 722 -248 88 -56
246 -192 319 -275 293 -333 430 -732 403 -1179 -13 -214 -60 -387 -164 -598
-235 -476 -692 -803 -1224 -875 -127 -18 -410 -8 -526 19 -486 109 -877 408
-1103 843 -27 51 -52 102 -55 113 -3 11 -21 65 -40 120 -57 165 -72 271 -71
500 0 165 4 218 22 301 20 94 61 232 82 279 5 11 21 46 34 78 14 32 49 98 78
145 220 365 582 636 983 737 134 33 332 56 420 49 22 -2 76 -6 120 -9z"/>
<path d="M3320 4337 c-163 -38 -283 -145 -334 -299 -21 -61 -37 -223 -36 -353
1 -60 1 -116 1 -122 -1 -10 -41 -13 -166 -13 l-165 0 0 -195 0 -195 163 -2
162 -3 3 -484 c2 -373 5 -487 15 -493 16 -10 368 -10 384 0 10 6 13 120 15
493 l3 484 165 5 164 5 23 170 c12 94 22 180 23 192 0 22 -1 23 -187 25 l-188
3 0 165 c0 184 5 202 68 240 28 17 51 20 169 20 77 0 139 4 143 10 3 5 6 82 6
171 1 144 -1 163 -16 172 -28 15 -351 18 -415 4z"/>
</g>
</svg>