<svg version="1.0" xmlns="http://www.w3.org/2000/svg"
 width="30px" height="30px" viewBox="0 0 656.000000 656.000000"
 preserveAspectRatio="xMidYMid meet">
<g transform="translate(0.000000,656.000000) scale(0.100000,-0.100000)" icon = "instagram"
fill="white" stroke="none">
<path d="M2900 6544 c-69 -8 -190 -28 -270 -44 -1400 -281 -2461 -1441 -2615
-2857 -20 -186 -20 -540 0 -726 62 -570 279 -1125 619 -1585 547 -740 1375
-1218 2283 -1317 186 -20 540 -20 726 0 1111 121 2087 806 2582 1810 174 355
278 708 320 1092 20 186 20 540 0 726 -57 521 -245 1035 -535 1467 -224 334
-566 676 -900 900 -432 290 -946 478 -1467 535 -177 19 -568 18 -743 -1z m555
-424 c408 -28 757 -123 1112 -304 615 -313 1099 -842 1357 -1484 343 -854 241
-1853 -269 -2617 -660 -989 -1835 -1466 -2990 -1214 -415 91 -830 291 -1170
564 -130 104 -319 293 -425 425 -596 737 -785 1702 -514 2613 142 478 437 944
809 1280 484 436 1083 693 1720 736 174 12 204 12 370 1z"/>
<path d="M2392 4620 c-236 -62 -432 -259 -492 -496 -19 -74 -20 -114 -20 -889
0 -775 1 -815 20 -889 62 -242 244 -425 497 -498 l78 -23 810 0 c901 0 859 -3
1010 69 148 70 252 173 325 321 78 158 75 111 75 1020 l0 810 -23 80 c-73 251
-257 434 -500 496 -71 18 -117 19 -891 18 -770 0 -820 -1 -889 -19z m1798
-241 c129 -62 214 -156 262 -290 l23 -64 0 -785 c0 -732 -1 -789 -18 -845 -49
-160 -178 -288 -334 -331 -64 -18 -117 -19 -848 -19 l-780 0 -64 23 c-134 48
-228 133 -290 262 l-36 75 0 830 0 830 37 78 c60 126 169 220 303 263 31 10
215 12 855 11 l815 -2 75 -36z"/>
<path d="M3998 4132 c-30 -18 -58 -67 -58 -102 0 -36 31 -90 61 -105 37 -20
109 -19 137 1 71 49 67 170 -8 209 -38 20 -98 19 -132 -3z"/>
<path d="M3185 3989 c-86 -10 -213 -54 -292 -100 -32 -19 -96 -72 -143 -119
-47 -47 -100 -111 -119 -143 -110 -187 -136 -433 -67 -635 40 -120 91 -199
191 -298 77 -78 106 -99 186 -138 127 -61 207 -79 349 -79 239 1 441 97 588
280 113 140 164 287 165 473 0 142 -18 222 -80 350 -39 82 -59 108 -142 190
-82 82 -110 103 -191 142 -145 71 -291 96 -445 77z m245 -235 c259 -73 431
-337 391 -599 -27 -171 -143 -326 -301 -403 -214 -105 -447 -65 -615 103 -212
212 -212 547 1 759 141 142 334 193 524 140z"/>
</g>
</svg>