<?xml version="1.0" encoding="UTF-8"?>
<!DOCTYPE svg PUBLIC "-//W3C//DTD SVG 1.1//EN" "http://www.w3.org/Graphics/SVG/1.1/DTD/svg11.dtd">
<svg xmlns="http://www.w3.org/2000/svg" version="1.1" width="2433px" height="2519px" style="shape-rendering:geometricPrecision; text-rendering:geometricPrecision; image-rendering:optimizeQuality; fill-rule:evenodd; clip-rule:evenodd" xmlns:xlink="http://www.w3.org/1999/xlink">
<g><path style="opacity:0.978" fill="#fecd00" d="M 412.5,501.5 C 414.025,503.036 416.025,504.036 418.5,504.5C 419.641,505.425 419.641,506.259 418.5,507C 425.333,510.32 432,513.32 438.5,516C 437.833,516.333 437.167,516.667 436.5,517C 439.748,517.082 442.081,518.582 443.5,521.5C 446.453,522.63 449.286,523.964 452,525.5C 452.333,525.167 452.667,524.833 453,524.5C 454.119,525.552 454.619,526.719 454.5,528C 456.878,528.511 459.212,529.178 461.5,530C 460.167,530.667 460.167,531.333 461.5,532C 465.234,533.517 468.901,535.184 472.5,537C 472.167,537.333 471.833,537.667 471.5,538C 474.229,538.005 476.229,539.171 477.5,541.5C 481.085,542.668 484.418,544.335 487.5,546.5C 490.191,544.748 490.858,545.248 489.5,548C 492.757,548.455 495.091,550.121 496.5,553C 497.549,553.492 498.549,553.326 499.5,552.5C 500.382,553.76 501.382,554.926 502.5,556C 505.687,557.879 509.687,559.546 514.5,561C 514.043,561.414 513.709,561.914 513.5,562.5C 516.47,562.995 518.804,564.495 520.5,567C 521.793,567.49 523.127,567.657 524.5,567.5C 525.574,569.216 527.241,570.216 529.5,570.5C 530.386,571.325 530.719,572.325 530.5,573.5C 536.006,575.586 541.339,578.253 546.5,581.5C 548.214,580.391 548.881,581.058 548.5,583.5C 551.857,583.106 554.19,584.439 555.5,587.5C 558.859,589.68 562.526,591.013 566.5,591.5C 566.5,592.5 566.5,593.5 566.5,594.5C 567.873,594.343 569.207,594.51 570.5,595C 572.811,597.487 575.478,599.487 578.5,601C 580.167,601.333 581.833,601.667 583.5,602C 584.833,602.667 584.833,603.333 583.5,604C 585.608,604.36 587.608,605.027 589.5,606C 594.682,611.148 600.349,614.148 606.5,615C 606.167,615.333 605.833,615.667 605.5,616C 609.91,619.706 614.91,622.04 620.5,623C 618.699,623.317 618.366,623.984 619.5,625C 621.608,625.36 623.608,626.027 625.5,627C 624.167,627.667 624.167,628.333 625.5,629C 628.738,629.232 631.238,630.732 633,633.5C 634.613,632.378 635.78,632.878 636.5,635C 639.923,634.855 641.923,636.355 642.5,639.5C 645.607,639.174 647.94,640.341 649.5,643C 652.64,644.716 655.973,646.049 659.5,647C 660.833,647.667 660.833,648.333 659.5,649C 661.167,649.333 662.833,649.667 664.5,650C 667.768,652.976 671.435,655.476 675.5,657.5C 678.351,655.858 679.017,656.525 677.5,659.5C 681.887,662.178 686.554,664.511 691.5,666.5C 694.55,667.732 697.55,669.232 700.5,671C 701.337,672.011 701.67,673.178 701.5,674.5C 705.167,675.833 708.833,677.167 712.5,678.5C 713.589,680.117 715.256,680.95 717.5,681C 719.125,681.853 719.458,682.853 718.5,684C 722.431,685.804 726.431,687.304 730.5,688.5C 729.532,691.026 730.366,691.692 733,690.5C 736.226,693.358 739.726,695.858 743.5,698C 744.793,698.49 746.127,698.657 747.5,698.5C 747.5,699.5 747.5,700.5 747.5,701.5C 749.5,701.5 751.5,701.5 753.5,701.5C 753.33,702.822 753.663,703.989 754.5,705C 759.429,708.154 764.762,710.654 770.5,712.5C 772.523,714.845 774.856,716.845 777.5,718.5C 780.738,719.962 784.071,721.129 787.5,722C 789.125,722.853 789.458,723.853 788.5,725C 790.5,725.667 792.5,726.333 794.5,727C 797.879,731.032 802.212,733.365 807.5,734C 807.167,734.333 806.833,734.667 806.5,735C 807.949,736.117 809.616,736.784 811.5,737C 812.167,738 812.833,739 813.5,740C 818.922,743.018 824.255,745.351 829.5,747C 830.337,748.011 830.67,749.178 830.5,750.5C 835.507,753.063 841.174,755.563 847.5,758C 848.833,758.667 848.833,759.333 847.5,760C 849.5,760.333 851.5,760.667 853.5,761C 853.167,761.333 852.833,761.667 852.5,762C 854,763.167 855.5,764.333 857,765.5C 857.333,765.167 857.667,764.833 858,764.5C 863.03,767.579 867.863,770.912 872.5,774.5C 875.562,776.384 878.895,777.551 882.5,778C 883.833,779 883.833,780 882.5,781C 885.557,780.893 887.891,782.06 889.5,784.5C 895.807,787.078 901.807,790.244 907.5,794C 907.167,794.333 906.833,794.667 906.5,795C 910.495,797.496 914.828,799.162 919.5,800C 918.167,800.667 918.167,801.333 919.5,802C 922.901,801.734 924.567,803.234 924.5,806.5C 928.212,807.306 931.879,808.306 935.5,809.5C 935.5,810.5 935.5,811.5 935.5,812.5C 937.199,812.34 938.866,812.506 940.5,813C 949.894,818.154 958.56,823.821 966.5,830C 969.833,831.333 973.167,832.667 976.5,834C 976.833,835 977.167,836 977.5,837C 983.427,840.459 989.76,843.125 996.5,845C 996.043,845.414 995.709,845.914 995.5,846.5C 998.119,846.976 1000.12,848.309 1001.5,850.5C 1004.56,852.402 1007.73,854.069 1011,855.5C 1012.67,854.66 1012.83,855.16 1011.5,857C 1016.93,858.748 1021.93,861.414 1026.5,865C 1028.17,865.333 1029.83,865.667 1031.5,866C 1030.83,866.333 1030.17,866.667 1029.5,867C 1031.34,868.132 1033.34,868.965 1035.5,869.5C 1039.51,873.005 1044.18,875.172 1049.5,876C 1048.83,876.667 1048.17,877.333 1047.5,878C 1050.82,877.775 1053.16,879.108 1054.5,882C 1058.17,883.723 1061.84,885.39 1065.5,887C 1065.17,887.333 1064.83,887.667 1064.5,888C 1066.81,888.497 1069.14,888.663 1071.5,888.5C 1071.5,889.833 1071.5,891.167 1071.5,892.5C 1075.27,894.459 1079.27,895.959 1083.5,897C 1083.17,897.333 1082.83,897.667 1082.5,898C 1083.77,898.309 1084.93,898.809 1086,899.5C 1086.33,899.167 1086.67,898.833 1087,898.5C 1087.5,899.667 1088.33,900.5 1089.5,901C 1089.17,901.333 1088.83,901.667 1088.5,902C 1093,903.503 1097,905.836 1100.5,909C 1102.79,909.822 1105.12,910.489 1107.5,911C 1107.04,911.414 1106.71,911.914 1106.5,912.5C 1108.08,913.298 1109.74,913.798 1111.5,914C 1112.34,915.011 1112.67,916.178 1112.5,917.5C 1119.39,918.722 1125.39,921.722 1130.5,926.5C 1133.05,927.944 1135.72,929.111 1138.5,930C 1138.17,930.333 1137.83,930.667 1137.5,931C 1139.11,931.72 1140.61,931.554 1142,930.5C 1142.62,931.449 1142.45,932.282 1141.5,933C 1143.29,934.163 1145.29,934.83 1147.5,935C 1148.83,935.667 1148.83,936.333 1147.5,937C 1150.87,938.03 1154.04,939.53 1157,941.5C 1157.77,941.355 1158.44,941.022 1159,940.5C 1159.49,941.793 1159.66,943.127 1159.5,944.5C 1162.86,943.789 1165.2,944.956 1166.5,948C 1169.07,948.901 1171.4,950.234 1173.5,952C 1174.78,952.684 1175.95,952.517 1177,951.5C 1177.62,952.449 1177.45,953.282 1176.5,954C 1178.56,954.311 1180.56,954.811 1182.5,955.5C 1183.71,956.274 1183.71,957.107 1182.5,958C 1186.5,959.667 1190.5,961.333 1194.5,963C 1194.17,963.333 1193.83,963.667 1193.5,964C 1196.38,964.438 1199.04,965.438 1201.5,967C 1201.17,967.333 1200.83,967.667 1200.5,968C 1203.94,968.111 1206.28,969.777 1207.5,973C 1209.91,973.306 1212.07,974.139 1214,975.5C 1216.07,974.213 1218.24,973.047 1220.5,972C 1220.17,971.667 1219.83,971.333 1219.5,971C 1221.49,969.249 1223.82,968.249 1226.5,968C 1226.17,967.667 1225.83,967.333 1225.5,967C 1229.53,965.284 1233.53,963.617 1237.5,962C 1237.17,961.667 1236.83,961.333 1236.5,961C 1241.48,958.307 1246.15,955.473 1250.5,952.5C 1254.14,951.013 1257.81,949.513 1261.5,948C 1262.34,946.989 1262.67,945.822 1262.5,944.5C 1264.2,944.66 1265.87,944.494 1267.5,944C 1267.98,942.992 1268.15,941.825 1268,940.5C 1269.62,941.801 1271.12,941.801 1272.5,940.5C 1275.11,938.619 1277.77,936.786 1280.5,935C 1282.61,934.64 1284.61,933.973 1286.5,933C 1284.07,932.549 1283.9,931.715 1286,930.5C 1287.29,931.791 1288.46,931.791 1289.5,930.5C 1292.86,928.931 1295.86,926.931 1298.5,924.5C 1300.08,923.702 1301.74,923.202 1303.5,923C 1302.38,921.387 1302.88,920.22 1305,919.5C 1305.41,919.957 1305.91,920.291 1306.5,920.5C 1310.08,919.221 1313.08,917.221 1315.5,914.5C 1317.05,913.548 1318.71,913.215 1320.5,913.5C 1320.31,911.897 1320.81,910.563 1322,909.5C 1322.33,909.833 1322.67,910.167 1323,910.5C 1327.8,907.852 1332.63,905.352 1337.5,903C 1338.46,901.581 1339.29,900.081 1340,898.5C 1341.77,899.276 1343.6,899.11 1345.5,898C 1345.17,897.667 1344.83,897.333 1344.5,897C 1348.49,896.14 1352.16,894.64 1355.5,892.5C 1355.5,891.167 1355.5,889.833 1355.5,888.5C 1357.83,888.5 1360.17,888.5 1362.5,888.5C 1362.09,885.724 1362.92,885.057 1365,886.5C 1367.17,883.702 1370,882.368 1373.5,882.5C 1373.33,881.178 1373.66,880.011 1374.5,879C 1376.26,878.798 1377.92,878.298 1379.5,877.5C 1379.29,876.914 1378.96,876.414 1378.5,876C 1382.5,875.498 1386.16,874.165 1389.5,872C 1390.83,871.333 1390.83,870.667 1389.5,870C 1392.24,869.197 1394.91,868.197 1397.5,867C 1397.17,866.667 1396.83,866.333 1396.5,866C 1401.42,864.539 1405.75,862.039 1409.5,858.5C 1411.42,857.692 1413.42,857.192 1415.5,857C 1414.4,854.609 1415.06,854.109 1417.5,855.5C 1420.4,852.902 1423.4,850.569 1426.5,848.5C 1428.17,847.833 1429.83,847.167 1431.5,846.5C 1431.29,845.914 1430.96,845.414 1430.5,845C 1435.88,843.922 1440.55,841.589 1444.5,838C 1445.83,837.667 1447.17,837.333 1448.5,837C 1448.83,836 1449.17,835 1449.5,834C 1454.28,833.115 1458.28,830.948 1461.5,827.5C 1463.42,826.692 1465.42,826.192 1467.5,826C 1466.74,824.636 1467.24,823.469 1469,822.5C 1469.33,822.833 1469.67,823.167 1470,823.5C 1471.07,822.809 1472.23,822.309 1473.5,822C 1472.83,821.667 1472.17,821.333 1471.5,821C 1475.93,819.44 1480.26,817.607 1484.5,815.5C 1485.88,813.309 1487.88,811.976 1490.5,811.5C 1490.29,810.914 1489.96,810.414 1489.5,810C 1491.5,809.667 1493.5,809.333 1495.5,809C 1497.14,807.252 1499.14,806.085 1501.5,805.5C 1501.29,804.914 1500.96,804.414 1500.5,804C 1502.8,803.105 1505.14,802.271 1507.5,801.5C 1507.29,800.914 1506.96,800.414 1506.5,800C 1510.83,799.33 1514.83,797.83 1518.5,795.5C 1519.92,792.582 1522.25,791.082 1525.5,791C 1525.17,790.667 1524.83,790.333 1524.5,790C 1526.5,789.333 1528.5,788.667 1530.5,788C 1533.38,786.31 1536.05,784.31 1538.5,782C 1540.17,781.667 1541.83,781.333 1543.5,781C 1542.29,780.107 1542.29,779.274 1543.5,778.5C 1550.43,776.705 1556.43,773.372 1561.5,768.5C 1567.45,766.758 1572.79,764.092 1577.5,760.5C 1577.5,759.5 1577.5,758.5 1577.5,757.5C 1579.99,757.702 1582.32,757.202 1584.5,756C 1583.55,755.282 1583.38,754.449 1584,753.5C 1585.49,754.747 1586.99,754.747 1588.5,753.5C 1593.04,751.07 1597.37,748.403 1601.5,745.5C 1600.5,743.323 1601.16,742.989 1603.5,744.5C 1606.21,742.464 1609.21,741.131 1612.5,740.5C 1612.28,739.325 1612.61,738.325 1613.5,737.5C 1621.37,733.137 1629.37,728.971 1637.5,725C 1637.17,724.667 1636.83,724.333 1636.5,724C 1640.14,721.511 1644.14,720.011 1648.5,719.5C 1649.08,716.355 1651.08,714.855 1654.5,715C 1653.54,713.853 1653.88,712.853 1655.5,712C 1660.08,711.041 1664.08,709.041 1667.5,706C 1668.79,705.51 1670.13,705.343 1671.5,705.5C 1671.76,701.932 1673.76,700.599 1677.5,701.5C 1677.35,700.448 1677.52,699.448 1678,698.5C 1681.04,699.129 1683.54,697.963 1685.5,695C 1686.83,694.667 1688.17,694.333 1689.5,694C 1689.17,693.667 1688.83,693.333 1688.5,693C 1690.08,692.293 1691.58,691.46 1693,690.5C 1693.91,691.654 1694.75,691.487 1695.5,690C 1695.17,689.667 1694.83,689.333 1694.5,689C 1696.58,688.808 1698.58,688.308 1700.5,687.5C 1703.1,685.717 1705.43,683.717 1707.5,681.5C 1709.42,680.692 1711.42,680.192 1713.5,680C 1712.14,677.871 1712.47,677.371 1714.5,678.5C 1717.69,676.566 1721.02,675.232 1724.5,674.5C 1724.33,673.178 1724.66,672.011 1725.5,671C 1727.26,670.798 1728.92,670.298 1730.5,669.5C 1730.29,668.914 1729.96,668.414 1729.5,668C 1734.83,667.011 1739.49,664.678 1743.5,661C 1745.26,660.798 1746.92,660.298 1748.5,659.5C 1748.29,658.914 1747.96,658.414 1747.5,658C 1752.7,656.106 1757.37,653.44 1761.5,650C 1762.79,649.51 1764.13,649.343 1765.5,649.5C 1765.5,648.5 1765.5,647.5 1765.5,646.5C 1770.38,646.129 1774.38,644.129 1777.5,640.5C 1779.4,639.534 1781.4,639.201 1783.5,639.5C 1784.08,636.355 1786.08,634.855 1789.5,635C 1789.04,634.586 1788.71,634.086 1788.5,633.5C 1792.83,632.623 1796.83,631.123 1800.5,629C 1801.83,628.333 1801.83,627.667 1800.5,627C 1806.21,624.143 1812.21,621.143 1818.5,618C 1818.17,617.667 1817.83,617.333 1817.5,617C 1819.81,615.133 1822.47,614.133 1825.5,614C 1825.17,613.667 1824.83,613.333 1824.5,613C 1827.18,612.751 1829.51,611.751 1831.5,610C 1831.17,609.667 1830.83,609.333 1830.5,609C 1833.56,608.849 1835.89,607.515 1837.5,605C 1839.17,604.667 1840.83,604.333 1842.5,604C 1840.7,603.683 1840.37,603.016 1841.5,602C 1845.62,601.002 1849.62,599.835 1853.5,598.5C 1853.28,597.325 1853.61,596.325 1854.5,595.5C 1856.66,594.965 1858.66,594.132 1860.5,593C 1859.17,592.333 1859.17,591.667 1860.5,591C 1863.93,590.119 1867.26,588.952 1870.5,587.5C 1872.76,584.782 1875.43,582.615 1878.5,581C 1884.26,578.431 1889.93,575.764 1895.5,573C 1894.17,572.333 1894.17,571.667 1895.5,571C 1900.21,569.304 1904.54,566.971 1908.5,564C 1909.79,563.51 1911.13,563.343 1912.5,563.5C 1912.28,562.325 1912.61,561.325 1913.5,560.5C 1915.54,559.764 1917.54,558.931 1919.5,558C 1917.07,557.549 1916.9,556.715 1919,555.5C 1921.79,556.846 1924.29,556.346 1926.5,554C 1925.66,552.334 1926.16,552.167 1928,553.5C 1930.35,550.372 1933.51,548.539 1937.5,548C 1937.17,547.667 1936.83,547.333 1936.5,547C 1942.6,544.068 1948.6,541.234 1954.5,538.5C 1954.5,537.5 1954.5,536.5 1954.5,535.5C 1959.74,534.88 1964.07,532.714 1967.5,529C 1969.26,528.798 1970.92,528.298 1972.5,527.5C 1971.15,526.325 1971.31,525.325 1973,524.5C 1974,524.833 1975,525.167 1976,525.5C 1980.04,523.716 1983.54,521.216 1986.5,518C 1987.83,517.667 1989.17,517.333 1990.5,517C 1990.17,516.667 1989.83,516.333 1989.5,516C 1995.2,512.986 2001.53,509.986 2008.5,507C 2007.36,506.259 2007.36,505.425 2008.5,504.5C 2010.97,504.036 2012.97,503.036 2014.5,501.5C 2020.89,499.088 2026.89,496.088 2032.5,492.5C 2031.67,491.549 2031.51,490.549 2032,489.5C 2033.94,490.807 2035.78,490.807 2037.5,489.5C 2040.18,487.667 2042.84,485.834 2045.5,484C 2046.83,483.667 2048.17,483.333 2049.5,483C 2049.36,481.931 2049.36,480.764 2049.5,479.5C 2051.1,480.485 2052.76,480.651 2054.5,480C 2054.17,479.667 2053.83,479.333 2053.5,479C 2056.45,477.869 2059.45,477.036 2062.5,476.5C 2062.33,475.178 2062.66,474.011 2063.5,473C 2065.5,472.667 2067.5,472.333 2069.5,472C 2068.72,470.927 2068.89,469.76 2070,468.5C 2070.41,468.957 2070.91,469.291 2071.5,469.5C 2076.95,465.967 2082.95,464.634 2089.5,465.5C 2089.5,785.833 2089.5,1106.17 2089.5,1426.5C 2084.26,1430.02 2077.93,1432.86 2070.5,1435C 2066.25,1437.23 2062.92,1439.73 2060.5,1442.5C 2053.64,1444.22 2047.97,1447.72 2043.5,1453C 2037.95,1454.95 2032.62,1457.12 2027.5,1459.5C 2026.92,1462.64 2024.92,1464.14 2021.5,1464C 2021.96,1464.41 2022.29,1464.91 2022.5,1465.5C 2017.21,1466.99 2012.54,1469.49 2008.5,1473C 2007.17,1473.33 2005.83,1473.67 2004.5,1474C 2003.17,1474.67 2003.17,1475.33 2004.5,1476C 2000.53,1477.62 1996.53,1479.28 1992.5,1481C 1992.83,1481.33 1993.17,1481.67 1993.5,1482C 1991.19,1483.87 1988.53,1484.87 1985.5,1485C 1987.93,1485.45 1988.1,1486.28 1986,1487.5C 1985.67,1487.17 1985.33,1486.83 1985,1486.5C 1979.54,1489.48 1974.04,1492.31 1968.5,1495C 1970.3,1495.32 1970.63,1495.98 1969.5,1497C 1963.31,1499.27 1957.31,1501.77 1951.5,1504.5C 1951.67,1505.82 1951.34,1506.99 1950.5,1508C 1943.6,1509.84 1937.6,1513.18 1932.5,1518C 1930.75,1518.47 1929.09,1519.14 1927.5,1520C 1927.83,1520.33 1928.17,1520.67 1928.5,1521C 1924.26,1522.95 1919.93,1524.62 1915.5,1526C 1916.83,1526.67 1916.83,1527.33 1915.5,1528C 1913.61,1528.97 1911.61,1529.64 1909.5,1530C 1910.06,1530.38 1910.39,1530.88 1910.5,1531.5C 1906.47,1532.89 1902.47,1534.23 1898.5,1535.5C 1898.67,1536.82 1898.34,1537.99 1897.5,1539C 1895.29,1539.17 1893.29,1539.84 1891.5,1541C 1893.93,1541.45 1894.1,1542.28 1892,1543.5C 1891,1543.17 1890,1542.83 1889,1542.5C 1885.5,1544.05 1882.33,1546.05 1879.5,1548.5C 1877.61,1549.61 1875.61,1550.44 1873.5,1551C 1874.83,1551.67 1874.83,1552.33 1873.5,1553C 1870.82,1551.83 1868.82,1552.67 1867.5,1555.5C 1865.58,1556.31 1863.58,1556.81 1861.5,1557C 1861.83,1557.33 1862.17,1557.67 1862.5,1558C 1860.51,1559.75 1858.18,1560.75 1855.5,1561C 1855.83,1561.33 1856.17,1561.67 1856.5,1562C 1852.26,1563.91 1847.93,1565.58 1843.5,1567C 1840.79,1569.16 1838.12,1571.33 1835.5,1573.5C 1832.89,1574.32 1830.23,1574.82 1827.5,1575C 1827.17,1575.33 1826.83,1575.67 1826.5,1576C 1827.5,1576.33 1828.5,1576.67 1829.5,1577C 1827.57,1577.78 1826.07,1577.28 1825,1575.5C 1822.87,1576.85 1821.71,1576.18 1821.5,1573.5C 1822.83,1465.08 1823.5,1356.58 1823.5,1248C 1823.33,1140.17 1823.17,1032.33 1823,924.5C 1822.36,925.646 1821.52,926.646 1820.5,927.5C 1813.5,930.482 1807.17,934.149 1801.5,938.5C 1800.13,938.343 1798.79,938.51 1797.5,939C 1794.74,941.16 1792.07,943.327 1789.5,945.5C 1787.6,946.466 1785.6,946.799 1783.5,946.5C 1783.5,947.5 1783.5,948.5 1783.5,949.5C 1779.53,949.987 1775.86,951.32 1772.5,953.5C 1771.23,955.829 1769.23,956.995 1766.5,957C 1766.17,958 1765.83,959 1765.5,960C 1764.17,960 1762.83,960 1761.5,960C 1761.83,960.333 1762.17,960.667 1762.5,961C 1758.91,962.091 1755.57,963.757 1752.5,966C 1752.83,966.333 1753.17,966.667 1753.5,967C 1751.42,967.192 1749.42,967.692 1747.5,968.5C 1741.87,971.829 1736.2,975.162 1730.5,978.5C 1730.71,979.086 1731.04,979.586 1731.5,980C 1726.16,981.005 1721.5,983.338 1717.5,987C 1716.17,987.333 1714.83,987.667 1713.5,988C 1712.17,988.667 1712.17,989.333 1713.5,990C 1711.04,991.562 1708.38,992.562 1705.5,993C 1706.17,993.333 1706.83,993.667 1707.5,994C 1702.06,994.921 1697.39,997.421 1693.5,1001.5C 1691.92,1002.3 1690.26,1002.8 1688.5,1003C 1689.17,1003.33 1689.83,1003.67 1690.5,1004C 1688.5,1004.33 1686.5,1004.67 1684.5,1005C 1682.05,1007.31 1679.38,1009.31 1676.5,1011C 1674.65,1012.13 1672.65,1012.63 1670.5,1012.5C 1670.5,1013.5 1670.5,1014.5 1670.5,1015.5C 1667.07,1016.43 1663.74,1017.6 1660.5,1019C 1659.83,1020 1659.17,1021 1658.5,1022C 1650.68,1025.74 1643.01,1029.74 1635.5,1034C 1636.83,1034.67 1636.83,1035.33 1635.5,1036C 1631.58,1036.96 1627.91,1038.46 1624.5,1040.5C 1623.29,1042.92 1621.29,1043.92 1618.5,1043.5C 1618.67,1044.82 1618.34,1045.99 1617.5,1047C 1611.87,1048.82 1606.54,1051.15 1601.5,1054C 1600.5,1056.76 1598.5,1058.09 1595.5,1058C 1589.56,1062.42 1583.23,1066.08 1576.5,1069C 1576.83,1069.33 1577.17,1069.67 1577.5,1070C 1573.7,1072.15 1569.7,1073.65 1565.5,1074.5C 1564.92,1077.64 1562.92,1079.14 1559.5,1079C 1560.83,1080.84 1560.67,1081.34 1559,1080.5C 1555.79,1082.59 1552.29,1084.26 1548.5,1085.5C 1547.15,1087.66 1545.15,1088.99 1542.5,1089.5C 1542.71,1090.09 1543.04,1090.59 1543.5,1091C 1538.84,1091.91 1534.5,1093.58 1530.5,1096C 1530.83,1096.33 1531.17,1096.67 1531.5,1097C 1529.28,1098.28 1526.95,1099.28 1524.5,1100C 1524.83,1100.33 1525.17,1100.67 1525.5,1101C 1524.33,1101.42 1523.33,1102.09 1522.5,1103C 1517.06,1104.7 1512.06,1107.04 1507.5,1110C 1507.83,1110.33 1508.17,1110.67 1508.5,1111C 1504.71,1113.22 1500.71,1115.05 1496.5,1116.5C 1495.28,1118.98 1493.28,1119.98 1490.5,1119.5C 1490.67,1120.82 1490.34,1121.99 1489.5,1123C 1487.42,1123.19 1485.42,1123.69 1483.5,1124.5C 1483.71,1125.09 1484.04,1125.59 1484.5,1126C 1482.42,1126.19 1480.42,1126.69 1478.5,1127.5C 1476.29,1129.47 1473.96,1131.31 1471.5,1133C 1470.17,1133.33 1468.83,1133.67 1467.5,1134C 1466.17,1134.67 1466.17,1135.33 1467.5,1136C 1463.26,1137.95 1458.93,1139.62 1454.5,1141C 1454.83,1141.33 1455.17,1141.67 1455.5,1142C 1453.52,1143.83 1451.19,1144.66 1448.5,1144.5C 1448.5,1145.5 1448.5,1146.5 1448.5,1147.5C 1444.52,1148.05 1440.86,1149.38 1437.5,1151.5C 1436.15,1153.66 1434.15,1154.99 1431.5,1155.5C 1431.71,1156.09 1432.04,1156.59 1432.5,1157C 1427.13,1158.06 1422.46,1160.39 1418.5,1164C 1417.17,1164.33 1415.83,1164.67 1414.5,1165C 1414.71,1166.68 1413.87,1168.18 1412,1169.5C 1411.67,1169.17 1411.33,1168.83 1411,1168.5C 1408.13,1169.69 1405.29,1171.02 1402.5,1172.5C 1399.62,1173.81 1397.28,1175.81 1395.5,1178.5C 1388.08,1182.83 1380.41,1186.67 1372.5,1190C 1372.96,1190.41 1373.29,1190.91 1373.5,1191.5C 1369.75,1192.75 1366.08,1194.25 1362.5,1196C 1361.83,1197 1361.17,1198 1360.5,1199C 1354.03,1201.33 1348.03,1204.66 1342.5,1209C 1342.83,1209.33 1343.17,1209.67 1343.5,1210C 1341.5,1210.33 1339.5,1210.67 1337.5,1211C 1338.45,1211.72 1338.62,1212.55 1338,1213.5C 1336.95,1212.48 1335.78,1212.32 1334.5,1213C 1330.97,1215.13 1327.64,1217.47 1324.5,1220C 1322.83,1220.33 1321.17,1220.67 1319.5,1221C 1320.31,1221.31 1320.97,1221.81 1321.5,1222.5C 1316.24,1223.64 1311.91,1226.14 1308.5,1230C 1306.83,1230.33 1305.17,1230.67 1303.5,1231C 1302.17,1231.67 1302.17,1232.33 1303.5,1233C 1295.68,1235.33 1289.01,1239.33 1283.5,1245C 1282.17,1245.33 1280.83,1245.67 1279.5,1246C 1279.83,1246.33 1280.17,1246.67 1280.5,1247C 1276.1,1248.54 1271.77,1250.37 1267.5,1252.5C 1268.61,1253.96 1268.11,1254.96 1266,1255.5C 1265.67,1255.17 1265.33,1254.83 1265,1254.5C 1263.93,1255.19 1262.77,1255.69 1261.5,1256C 1262.96,1256.42 1263.46,1257.26 1263,1258.5C 1262.67,1258.17 1262.33,1257.83 1262,1257.5C 1258.33,1259.4 1254.5,1260.73 1250.5,1261.5C 1250.45,1264.9 1248.95,1266.23 1246,1265.5C 1244.51,1266.25 1244.35,1267.09 1245.5,1268C 1243.83,1268.33 1242.17,1268.67 1240.5,1269C 1235.04,1271.36 1230.38,1274.03 1226.5,1277C 1227.86,1279.13 1227.53,1279.63 1225.5,1278.5C 1221.04,1281.89 1216.04,1283.06 1210.5,1282C 1206.03,1279.76 1202.2,1277.59 1199,1275.5C 1198.67,1275.83 1198.33,1276.17 1198,1276.5C 1197.5,1275.33 1196.67,1274.5 1195.5,1274C 1195.83,1273.67 1196.17,1273.33 1196.5,1273C 1191.13,1270.17 1185.79,1267.33 1180.5,1264.5C 1179.61,1263.68 1179.28,1262.68 1179.5,1261.5C 1175.85,1261.36 1172.68,1260.03 1170,1257.5C 1169.67,1257.83 1169.33,1258.17 1169,1258.5C 1168.52,1257.55 1168.35,1256.55 1168.5,1255.5C 1165.03,1256.11 1163.03,1254.78 1162.5,1251.5C 1160.71,1251.79 1159.05,1251.45 1157.5,1250.5C 1155.47,1247.74 1152.97,1247.08 1150,1248.5C 1149.54,1247.26 1150.04,1246.42 1151.5,1246C 1145.15,1243.61 1139.48,1240.28 1134.5,1236C 1132.03,1234.54 1129.36,1233.54 1126.5,1233C 1127.83,1232.33 1127.83,1231.67 1126.5,1231C 1121.04,1227.89 1115.37,1225.06 1109.5,1222.5C 1109.71,1221.91 1110.04,1221.41 1110.5,1221C 1107.1,1220.99 1104.43,1219.65 1102.5,1217C 1097.17,1214.11 1092.34,1211.61 1088,1209.5C 1087.67,1209.83 1087.33,1210.17 1087,1210.5C 1086.5,1209.33 1085.67,1208.5 1084.5,1208C 1085.17,1207.67 1085.83,1207.33 1086.5,1207C 1082.26,1205.05 1077.93,1203.38 1073.5,1202C 1073.96,1201.59 1074.29,1201.09 1074.5,1200.5C 1072.92,1199.7 1071.26,1199.2 1069.5,1199C 1066.5,1196.67 1063.5,1194.33 1060.5,1192C 1059.55,1191.52 1058.55,1191.35 1057.5,1191.5C 1052.96,1188.46 1048.3,1185.29 1043.5,1182C 1037.09,1179.93 1031.43,1176.59 1026.5,1172C 1023.93,1170.6 1021.27,1169.43 1018.5,1168.5C 1016.47,1166.06 1013.81,1164.56 1010.5,1164C 1007.18,1160.06 1002.84,1157.72 997.5,1157C 997.957,1156.59 998.291,1156.09 998.5,1155.5C 996.922,1154.7 995.256,1154.2 993.5,1154C 990.72,1151.44 987.72,1149.1 984.5,1147C 983.451,1146.51 982.451,1146.67 981.5,1147.5C 980.289,1146.73 980.289,1145.89 981.5,1145C 979.833,1144.67 978.167,1144.33 976.5,1144C 972.998,1141.36 969.331,1138.86 965.5,1136.5C 962.347,1138.33 961.347,1137.66 962.5,1134.5C 957.284,1132.14 952.451,1129.14 948,1125.5C 945.04,1128.39 944.206,1128.06 945.5,1124.5C 943.922,1123.7 942.256,1123.2 940.5,1123C 936.131,1117.67 930.464,1114.33 923.5,1113C 921.875,1112.15 921.542,1111.15 922.5,1110C 918.5,1108.33 914.5,1106.67 910.5,1105C 910.833,1104.67 911.167,1104.33 911.5,1104C 909.598,1103.8 908.098,1102.97 907,1101.5C 905.187,1102.61 904.354,1101.94 904.5,1099.5C 900.719,1099.7 898.386,1098.04 897.5,1094.5C 894.29,1093.83 891.124,1092.83 888,1091.5C 883.203,1087.1 877.87,1083.43 872,1080.5C 871.223,1082.7 870.056,1082.7 868.5,1080.5C 868.709,1079.91 869.043,1079.41 869.5,1079C 867.392,1078.64 865.392,1077.97 863.5,1077C 861.197,1074.84 858.53,1073.18 855.5,1072C 855.833,1071.67 856.167,1071.33 856.5,1071C 854.833,1070.67 853.167,1070.33 851.5,1070C 851.833,1069.67 852.167,1069.33 852.5,1069C 844.327,1064.41 835.994,1060.08 827.5,1056C 828.833,1055.33 828.833,1054.67 827.5,1054C 824.441,1053.94 822.108,1052.61 820.5,1050C 816.561,1048.76 812.895,1047.09 809.5,1045C 809.833,1044.67 810.167,1044.33 810.5,1044C 807.823,1043.75 805.49,1042.75 803.5,1041C 803.833,1040.67 804.167,1040.33 804.5,1040C 800.639,1038.24 796.639,1036.74 792.5,1035.5C 792.709,1034.91 793.043,1034.41 793.5,1034C 789.541,1034.35 786.874,1032.68 785.5,1029C 782.629,1028.87 780.295,1027.7 778.5,1025.5C 777.914,1025.71 777.414,1026.04 777,1026.5C 775.064,1023.67 772.231,1021.17 768.5,1019C 764.868,1017.52 761.202,1016.02 757.5,1014.5C 757.709,1013.91 758.043,1013.41 758.5,1013C 756.833,1012.67 755.167,1012.33 753.5,1012C 743.986,1006.99 735.319,1001.33 727.5,995C 724.37,993.214 721.036,991.881 717.5,991C 716.663,989.989 716.33,988.822 716.5,987.5C 714.801,987.66 713.134,987.494 711.5,987C 708.844,985.344 706.344,983.51 704,981.5C 702.56,980.852 701.06,980.519 699.5,980.5C 699.5,979.5 699.5,978.5 699.5,977.5C 697.712,977.785 696.045,977.452 694.5,976.5C 684.925,970.816 675.425,965.149 666,959.5C 665.667,959.833 665.333,960.167 665,960.5C 663.881,959.448 663.381,958.281 663.5,957C 661.744,956.798 660.078,956.298 658.5,955.5C 654.892,951.908 650.558,949.574 645.5,948.5C 645.709,947.914 646.043,947.414 646.5,947C 644.833,946.667 643.167,946.333 641.5,946C 638.975,943.582 636.308,941.416 633.5,939.5C 630.326,937.775 626.993,936.442 623.5,935.5C 622.359,934.575 622.359,933.741 623.5,933C 617.019,930.25 611.019,927.416 605.5,924.5C 605.667,1141.5 605.5,1358.5 605,1575.5C 604.086,1576.65 603.253,1576.49 602.5,1575C 599.833,1574.67 597.167,1574.33 594.5,1574C 593.663,1572.99 593.33,1571.82 593.5,1570.5C 590.722,1570.98 588.722,1569.98 587.5,1567.5C 583.825,1565.99 580.158,1564.49 576.5,1563C 575.167,1562.33 575.167,1561.67 576.5,1561C 574.833,1560.67 573.167,1560.33 571.5,1560C 566.092,1555.17 560.425,1551.83 554.5,1550C 550.095,1545.62 544.762,1542.96 538.5,1542C 538.957,1541.59 539.291,1541.09 539.5,1540.5C 537.892,1539.68 536.225,1539.01 534.5,1538.5C 533.614,1537.68 533.281,1536.68 533.5,1535.5C 529.467,1534.33 525.467,1532.83 521.5,1531C 521.833,1530.67 522.167,1530.33 522.5,1530C 520.187,1529.34 517.854,1528.84 515.5,1528.5C 515.5,1527.5 515.5,1526.5 515.5,1525.5C 510.715,1524.32 506.715,1522.82 503.5,1521C 503.833,1520.67 504.167,1520.33 504.5,1520C 502.5,1519.33 500.5,1518.67 498.5,1518C 497.167,1517.33 497.167,1516.67 498.5,1516C 492.132,1512.99 485.799,1509.99 479.5,1507C 480.833,1506.33 480.833,1505.67 479.5,1505C 474.426,1502.13 469.093,1499.8 463.5,1498C 462.663,1496.99 462.33,1495.82 462.5,1494.5C 460.396,1494.8 458.396,1494.47 456.5,1493.5C 452.74,1489.5 448.073,1487 442.5,1486C 443.167,1485.67 443.833,1485.33 444.5,1485C 440.879,1484.82 438.212,1483.16 436.5,1480C 433.141,1478.62 429.807,1477.28 426.5,1476C 427.833,1475.33 427.833,1474.67 426.5,1474C 423.175,1474.22 420.842,1472.89 419.5,1470C 415.947,1468.3 412.28,1466.8 408.5,1465.5C 408.709,1464.91 409.043,1464.41 409.5,1464C 407.833,1463.67 406.167,1463.33 404.5,1463C 403.663,1461.99 403.33,1460.82 403.5,1459.5C 400.039,1460.11 397.372,1458.94 395.5,1456C 393.833,1455.67 392.167,1455.33 390.5,1455C 390.833,1454.67 391.167,1454.33 391.5,1454C 387.728,1453.48 385.395,1451.81 384.5,1449C 378.571,1446.37 372.571,1443.71 366.5,1441C 366.957,1440.59 367.291,1440.09 367.5,1439.5C 365.922,1438.7 364.256,1438.2 362.5,1438C 359.647,1435.48 356.481,1433.31 353,1431.5C 352.667,1431.83 352.333,1432.17 352,1432.5C 350.812,1431.44 350.312,1430.1 350.5,1428.5C 347.856,1428.84 345.523,1428.17 343.5,1426.5C 342.5,1378.17 342.167,1329.84 342.5,1281.5C 342.5,1278.17 342.5,1274.83 342.5,1271.5C 342.5,1002.83 342.5,734.167 342.5,465.5C 345.518,465.335 348.518,465.502 351.5,466C 353.366,468.282 355.532,469.115 358,468.5C 358.333,469.167 358.667,469.833 359,470.5C 361.129,469.137 361.629,469.471 360.5,471.5C 364.686,474.762 369.353,477.262 374.5,479C 374.167,479.333 373.833,479.667 373.5,480C 379.694,482.142 385.36,485.309 390.5,489.5C 392.423,490.308 394.423,490.808 396.5,491C 396.043,491.414 395.709,491.914 395.5,492.5C 397.108,493.318 398.775,493.985 400.5,494.5C 401.386,495.325 401.719,496.325 401.5,497.5C 405.167,498.833 408.833,500.167 412.5,501.5 Z M 605.5,924.5 C 603.663,924.361 603.33,923.694 604.5,922.5C 605.298,922.957 605.631,923.624 605.5,924.5 Z"/></g>
<g><path style="opacity:0.004" fill="#fecd00" d="M 2037.5,489.5 C 2036.83,488.167 2036.83,488.167 2037.5,489.5 Z"/></g>
<g><path style="opacity:0.004" fill="#fecd00" d="M 412.5,500.5 C 413.833,501.167 413.833,501.167 412.5,500.5 Z"/></g>
<g><path style="opacity:0.004" fill="#fecd00" d="M 2014.5,501.5 C 2013.83,500.167 2013.83,500.167 2014.5,501.5 Z"/></g>
<g><path style="opacity:0.004" fill="#fecd00" d="M 524.5,566.5 C 525.833,567.167 525.833,567.167 524.5,566.5 Z"/></g>
<g><path style="opacity:0.926" fill="#fecd00" d="M 1519.5,717.5 C 1514.62,719.464 1509.29,721.964 1503.5,725C 1504.83,725.667 1504.83,726.333 1503.5,727C 1496.12,729.094 1489.78,732.761 1484.5,738C 1483.17,738.333 1481.83,738.667 1480.5,739C 1480.96,739.414 1481.29,739.914 1481.5,740.5C 1476.92,741.794 1472.58,743.627 1468.5,746C 1468.83,746.333 1469.17,746.667 1469.5,747C 1467.61,747.973 1465.61,748.64 1463.5,749C 1462.17,749.667 1462.17,750.333 1463.5,751C 1459.69,751.823 1456.19,753.323 1453,755.5C 1451.06,758.494 1448.23,759.994 1444.5,760C 1445.17,760.333 1445.83,760.667 1446.5,761C 1440.12,764.015 1433.79,767.015 1427.5,770C 1428.71,770.893 1428.71,771.726 1427.5,772.5C 1422.84,773.999 1418.5,776.166 1414.5,779C 1413.21,779.49 1411.87,779.657 1410.5,779.5C 1410.82,782.694 1409.66,783.694 1407,782.5C 1401.21,785.964 1395.71,789.797 1390.5,794C 1389.17,794.333 1387.83,794.667 1386.5,795C 1386.83,795.333 1387.17,795.667 1387.5,796C 1385.5,796.333 1383.5,796.667 1381.5,797C 1381.83,797.333 1382.17,797.667 1382.5,798C 1378.82,799.494 1375.66,801.661 1373,804.5C 1372.67,804.167 1372.33,803.833 1372,803.5C 1368.54,803.983 1368.04,805.15 1370.5,807C 1369.55,807.617 1368.72,807.451 1368,806.5C 1364.81,808.858 1361.31,810.524 1357.5,811.5C 1357.71,812.086 1358.04,812.586 1358.5,813C 1352.84,815.647 1347.18,818.314 1341.5,821C 1340.13,824.683 1337.46,826.349 1333.5,826C 1333.83,826.333 1334.17,826.667 1334.5,827C 1333.24,828.113 1332.07,828.28 1331,827.5C 1327.44,829.952 1323.94,832.452 1320.5,835C 1319.17,835.333 1317.83,835.667 1316.5,836C 1317.46,837.147 1317.12,838.147 1315.5,839C 1309.64,840.472 1304.31,842.805 1299.5,846C 1298.66,847.011 1298.33,848.178 1298.5,849.5C 1295.99,849.054 1293.99,849.72 1292.5,851.5C 1286.58,854.706 1280.58,857.873 1274.5,861C 1274.83,861.333 1275.17,861.667 1275.5,862C 1271.56,863.795 1267.56,865.295 1263.5,866.5C 1263.67,867.822 1263.34,868.989 1262.5,870C 1260.83,870.333 1259.17,870.667 1257.5,871C 1259.66,873.68 1258.83,874.18 1255,872.5C 1252.67,875.018 1249.84,876.352 1246.5,876.5C 1246.67,877.822 1246.34,878.989 1245.5,880C 1243.83,880.333 1242.17,880.667 1240.5,881C 1239.17,881.667 1239.17,882.333 1240.5,883C 1236.7,884.074 1233.03,885.408 1229.5,887C 1228.83,888 1228.17,889 1227.5,890C 1224.54,891.149 1221.87,892.649 1219.5,894.5C 1217.52,895.152 1215.68,896.152 1214,897.5C 1212.35,896.258 1210.52,895.424 1208.5,895C 1208.83,894.667 1209.17,894.333 1209.5,894C 1208.17,893.667 1206.83,893.333 1205.5,893C 1205.83,892.667 1206.17,892.333 1206.5,892C 1203.48,891.495 1201.15,889.995 1199.5,887.5C 1198.28,886.289 1197.11,886.289 1196,887.5C 1195.63,886.584 1195.13,885.75 1194.5,885C 1190.61,883.553 1186.95,881.886 1183.5,880C 1182.66,878.989 1182.33,877.822 1182.5,876.5C 1179.16,876.352 1176.33,875.018 1174,872.5C 1171.92,873.943 1171.09,873.276 1171.5,870.5C 1167.76,871.401 1165.76,870.068 1165.5,866.5C 1164.13,866.657 1162.79,866.49 1161.5,866C 1157.57,862.869 1153.24,860.536 1148.5,859C 1147.17,858.333 1147.17,857.667 1148.5,857C 1144.88,856.822 1142.21,855.155 1140.5,852C 1139.55,851.383 1138.72,851.549 1138,852.5C 1137.63,851.584 1137.13,850.75 1136.5,850C 1133.08,850.145 1131.08,848.645 1130.5,845.5C 1125.58,842.685 1120.25,840.518 1114.5,839C 1112.88,838.147 1112.54,837.147 1113.5,836C 1107.67,832.797 1101.67,829.797 1095.5,827C 1095.83,826.667 1096.17,826.333 1096.5,826C 1092.73,825.477 1090.4,823.81 1089.5,821C 1085.72,819.118 1081.72,817.785 1077.5,817C 1079.3,816.683 1079.63,816.016 1078.5,815C 1073.22,811.814 1067.55,809.147 1061.5,807C 1060.17,806.333 1060.17,805.667 1061.5,805C 1057.18,802.261 1052.51,799.927 1047.5,798C 1047.83,797.667 1048.17,797.333 1048.5,797C 1046.56,796.257 1044.73,796.424 1043,797.5C 1042.54,796.256 1043.04,795.423 1044.5,795C 1041.82,794.751 1039.49,793.751 1037.5,792C 1037.83,791.667 1038.17,791.333 1038.5,791C 1034.49,789.815 1030.82,787.981 1027.5,785.5C 1025.85,784.073 1023.85,783.24 1021.5,783C 1020.66,781.989 1020.33,780.822 1020.5,779.5C 1016.56,778.432 1012.89,776.598 1009.5,774C 1006.99,773.624 1004.66,772.79 1002.5,771.5C 1002.71,770.914 1003.04,770.414 1003.5,770C 998.224,766.814 992.557,764.148 986.5,762C 985.167,761.333 985.167,760.667 986.5,760C 984.423,759.808 982.423,759.308 980.5,758.5C 979.359,757.575 979.359,756.741 980.5,756C 976.474,754.284 972.474,752.617 968.5,751C 968.833,750.667 969.167,750.333 969.5,750C 964.615,748.092 960.282,745.425 956.5,742C 954.423,741.808 952.423,741.308 950.5,740.5C 950.709,739.914 951.043,739.414 951.5,739C 948.077,739.145 946.077,737.645 945.5,734.5C 943.801,734.66 942.134,734.494 940.5,734C 939.028,731.004 936.862,730.171 934,731.5C 933.383,730.551 933.549,729.718 934.5,729C 933.167,728.667 931.833,728.333 930.5,728C 925.483,723.49 919.816,719.99 913.5,717.5C 912.791,716.596 911.791,716.263 910.5,716.5C 910.5,715.5 910.5,714.5 910.5,713.5C 907.722,713.978 905.722,712.978 904.5,710.5C 901.608,709.606 898.941,708.272 896.5,706.5C 894.117,707.462 893.117,706.462 893.5,703.5C 890.136,704.211 887.803,703.044 886.5,700C 883.085,698.083 879.419,696.75 875.5,696C 875.957,695.586 876.291,695.086 876.5,694.5C 873.951,693.716 871.618,692.549 869.5,691C 869.833,690.667 870.167,690.333 870.5,690C 867.179,689.187 864.179,687.687 861.5,685.5C 860.558,685.608 859.725,685.941 859,686.5C 859.148,685.175 858.982,684.008 858.5,683C 856.833,682.667 855.167,682.333 853.5,682C 852.167,681.333 852.167,680.667 853.5,680C 850.763,678.924 848.096,677.757 845.5,676.5C 844.432,675.566 843.099,675.232 841.5,675.5C 841.5,674.5 841.5,673.5 841.5,672.5C 840.127,672.657 838.793,672.49 837.5,672C 834.622,669.526 831.622,667.193 828.5,665C 826.793,664.805 825.126,664.805 823.5,665C 823.957,664.586 824.291,664.086 824.5,663.5C 821.783,663.001 819.449,661.835 817.5,660C 817.833,659.667 818.167,659.333 818.5,659C 814.887,657.157 811.221,655.657 807.5,654.5C 807.539,653.244 807.039,652.244 806,651.5C 803.222,652.685 801.722,651.685 801.5,648.5C 796.93,647.44 792.93,645.274 789.5,642C 787.212,641.178 784.878,640.511 782.5,640C 782.833,639.667 783.167,639.333 783.5,639C 782,637.885 780.333,637.052 778.5,636.5C 777.614,635.675 777.281,634.675 777.5,633.5C 774.13,633.294 771.297,631.961 769,629.5C 767.901,632.044 766.735,632.044 765.5,629.5C 765.709,628.914 766.043,628.414 766.5,628C 764.392,627.64 762.392,626.973 760.5,626C 759.167,625.333 759.167,624.667 760.5,624C 758.833,623.667 757.167,623.333 755.5,623C 755.833,622.667 756.167,622.333 756.5,622C 753.655,621.462 750.988,620.462 748.5,619C 748.833,618.667 749.167,618.333 749.5,618C 745.337,615.823 741.003,614.156 736.5,613C 734.496,610.159 733.996,606.993 735,603.5C 735.75,602.874 736.584,602.374 737.5,602C 818.5,601.333 899.5,601.333 980.5,602C 981.833,602.667 981.833,603.333 980.5,604C 982.473,604.495 984.473,604.662 986.5,604.5C 986.5,605.833 986.5,607.167 986.5,608.5C 990.538,609.654 994.538,611.154 998.5,613C 998.167,613.333 997.833,613.667 997.5,614C 1005.25,617.808 1012.92,621.808 1020.5,626C 1021.5,628.761 1023.5,630.094 1026.5,630C 1034.93,634.768 1043.1,639.934 1051,645.5C 1052.15,646.424 1053.15,646.424 1054,645.5C 1059.74,651.295 1066.58,655.462 1074.5,658C 1073.17,658.667 1073.17,659.333 1074.5,660C 1077.76,660.268 1080.26,661.768 1082,664.5C 1082.33,664.167 1082.67,663.833 1083,663.5C 1085.33,666.011 1088.16,667.344 1091.5,667.5C 1091.5,668.5 1091.5,669.5 1091.5,670.5C 1094.29,670.077 1096.29,671.077 1097.5,673.5C 1101.01,675.542 1104.68,677.209 1108.5,678.5C 1109.59,680.117 1111.26,680.95 1113.5,681C 1115.12,681.853 1115.46,682.853 1114.5,684C 1117.36,684.54 1120.03,685.54 1122.5,687C 1122.17,687.333 1121.83,687.667 1121.5,688C 1123.13,688.494 1124.8,688.66 1126.5,688.5C 1126.5,689.5 1126.5,690.5 1126.5,691.5C 1128.2,691.34 1129.87,691.506 1131.5,692C 1135.68,694.697 1139.68,697.531 1143.5,700.5C 1146.73,700.753 1149.07,702.253 1150.5,705C 1153.5,704.906 1155.5,706.239 1156.5,709C 1159.66,710.469 1162.99,711.469 1166.5,712C 1167.34,713.011 1167.67,714.178 1167.5,715.5C 1170.28,715.022 1172.28,716.022 1173.5,718.5C 1176.3,720.188 1179.3,721.355 1182.5,722C 1188.21,725.589 1193.21,729.255 1197.5,733C 1199.21,733.195 1200.87,733.195 1202.5,733C 1203.63,734.016 1203.3,734.683 1201.5,735C 1203.29,736.163 1205.29,736.83 1207.5,737C 1208.34,738.011 1208.67,739.178 1208.5,740.5C 1212.13,741.292 1215.63,742.625 1219,744.5C 1221.33,741.982 1224.16,740.648 1227.5,740.5C 1227.28,739.325 1227.61,738.325 1228.5,737.5C 1230.66,736.965 1232.66,736.132 1234.5,735C 1233.35,734.086 1233.51,733.253 1235,732.5C 1236.05,733.517 1237.22,733.684 1238.5,733C 1243.5,729.365 1248.5,725.698 1253.5,722C 1256.78,720.851 1260.11,720.018 1263.5,719.5C 1263.75,716.53 1265.41,715.197 1268.5,715.5C 1268.28,714.325 1268.61,713.325 1269.5,712.5C 1274.42,711.375 1278.75,709.208 1282.5,706C 1283.79,705.51 1285.13,705.343 1286.5,705.5C 1287.03,702.221 1289.03,700.887 1292.5,701.5C 1292.12,699.058 1292.79,698.391 1294.5,699.5C 1296.46,698.547 1298.12,697.213 1299.5,695.5C 1301.08,694.702 1302.74,694.202 1304.5,694C 1303.17,693.333 1303.17,692.667 1304.5,692C 1306.17,691.667 1307.83,691.333 1309.5,691C 1310.83,690.333 1310.83,689.667 1309.5,689C 1311.17,688.667 1312.83,688.333 1314.5,688C 1318.8,684.502 1323.13,681.335 1327.5,678.5C 1328.87,678.657 1330.21,678.49 1331.5,678C 1334.72,675.897 1337.72,673.564 1340.5,671C 1341.79,670.51 1343.13,670.343 1344.5,670.5C 1344.5,669.5 1344.5,668.5 1344.5,667.5C 1346.99,667.702 1349.32,667.202 1351.5,666C 1354.8,663.198 1358.47,661.032 1362.5,659.5C 1360.98,656.525 1361.65,655.858 1364.5,657.5C 1368.57,655.476 1372.23,652.976 1375.5,650C 1377.17,649.667 1378.83,649.333 1380.5,649C 1379.17,647.16 1379.33,646.66 1381,647.5C 1386.67,644.736 1392.17,641.902 1397.5,639C 1397.04,638.586 1396.71,638.086 1396.5,637.5C 1401.77,636.045 1406.44,633.545 1410.5,630C 1411.83,629.667 1413.17,629.333 1414.5,629C 1415.83,628.333 1415.83,627.667 1414.5,627C 1417.03,626.381 1419.37,625.381 1421.5,624C 1420.83,623.667 1420.17,623.333 1419.5,623C 1421.5,622.667 1423.5,622.333 1425.5,622C 1427.48,620.111 1429.82,618.778 1432.5,618C 1432.17,617.667 1431.83,617.333 1431.5,617C 1433.49,615.249 1435.82,614.249 1438.5,614C 1437.35,613.086 1437.51,612.253 1439,611.5C 1440.05,612.517 1441.22,612.684 1442.5,612C 1445.62,609.807 1448.62,607.474 1451.5,605C 1453.17,604.667 1454.83,604.333 1456.5,604C 1455.17,603.333 1455.17,602.667 1456.5,602C 1534.4,601.832 1612.24,601.332 1690,600.5C 1693.68,602.053 1697.18,601.719 1700.5,599.5C 1700.83,600 1701.17,600.5 1701.5,601C 1700.96,605.246 1700.12,609.413 1699,613.5C 1697.05,612.308 1695.05,612.308 1693,613.5C 1691.08,615.881 1688.58,617.381 1685.5,618C 1685.83,618.333 1686.17,618.667 1686.5,619C 1680.14,621.5 1674.14,624.333 1668.5,627.5C 1668.5,628.5 1668.5,629.5 1668.5,630.5C 1663.1,630.773 1658.77,632.939 1655.5,637C 1653.87,637.494 1652.2,637.66 1650.5,637.5C 1650.67,638.822 1650.34,639.989 1649.5,641C 1645.25,641.764 1641.59,643.597 1638.5,646.5C 1636.61,647.609 1634.61,648.443 1632.5,649C 1632.83,649.333 1633.17,649.667 1633.5,650C 1631.51,651.751 1629.18,652.751 1626.5,653C 1626.83,653.333 1627.17,653.667 1627.5,654C 1618.22,659.553 1608.55,664.553 1598.5,669C 1597.83,670 1597.17,671 1596.5,672C 1594.62,672.216 1592.95,672.883 1591.5,674C 1592.17,674.333 1592.83,674.667 1593.5,675C 1589.39,674.694 1586.23,676.194 1584,679.5C 1582.17,678.816 1580.67,679.483 1579.5,681.5C 1577.92,682.298 1576.26,682.798 1574.5,683C 1573.17,683.667 1573.17,684.333 1574.5,685C 1568.24,687.825 1562.24,690.825 1556.5,694C 1557.73,696.601 1557.06,697.435 1554.5,696.5C 1551.64,698.051 1548.64,699.051 1545.5,699.5C 1545.67,700.822 1545.34,701.989 1544.5,703C 1542.42,703.192 1540.42,703.692 1538.5,704.5C 1538.71,705.086 1539.04,705.586 1539.5,706C 1531.6,708.15 1524.93,711.983 1519.5,717.5 Z"/></g>
<g><path style="opacity:0.004" fill="#fecd00" d="M 807.5,654.5 C 806.833,655.167 806.833,655.167 807.5,654.5 Z"/></g>
<g><path style="opacity:0.004" fill="#fecd00" d="M 691.5,665.5 C 692.833,666.167 692.833,666.167 691.5,665.5 Z"/></g>
<g><path style="opacity:0.004" fill="#fecd00" d="M 845.5,676.5 C 844.833,677.167 844.833,677.167 845.5,676.5 Z"/></g>
<g><path style="opacity:0.004" fill="#fecd00" d="M 712.5,678.5 C 712.897,677.475 713.563,677.308 714.5,678C 713.906,678.464 713.239,678.631 712.5,678.5 Z"/></g>
<g><path style="opacity:0.004" fill="#fecd00" d="M 1108.5,678.5 C 1108.9,677.475 1109.56,677.308 1110.5,678C 1109.91,678.464 1109.24,678.631 1108.5,678.5 Z"/></g>
<g><path style="opacity:0.004" fill="#fecd00" d="M 1327.5,678.5 C 1326.83,677.167 1326.83,677.167 1327.5,678.5 Z"/></g>
<g><path style="opacity:0.004" fill="#fecd00" d="M 730.5,687.5 C 731.833,688.167 731.833,688.167 730.5,687.5 Z"/></g>
<g><path style="opacity:0.004" fill="#fecd00" d="M 1126.5,687.5 C 1127.83,688.167 1127.83,688.167 1126.5,687.5 Z"/></g>
<g><path style="opacity:0.004" fill="#fecd00" d="M 913.5,717.5 C 912.833,718.167 912.833,718.167 913.5,717.5 Z"/></g>
<g><path style="opacity:0.004" fill="#fecd00" d="M 1519.5,717.5 C 1520.83,718.167 1520.83,718.167 1519.5,717.5 Z"/></g>
<g><path style="opacity:0.004" fill="#fecd00" d="M 1565.5,763.5 C 1566.53,763.897 1566.69,764.563 1566,765.5C 1565.54,764.906 1565.37,764.239 1565.5,763.5 Z"/></g>
<g><path style="opacity:0.004" fill="#fecd00" d="M 1027.5,785.5 C 1026.83,786.167 1026.83,786.167 1027.5,785.5 Z"/></g>
<g><path style="opacity:0.004" fill="#fecd00" d="M 1404.5,785.5 C 1405.83,786.167 1405.83,786.167 1404.5,785.5 Z"/></g>
<g><path style="opacity:0.004" fill="#fecd00" d="M 1351.5,816.5 C 1352.83,817.167 1352.83,817.167 1351.5,816.5 Z"/></g>
<g><path style="opacity:0.004" fill="#fecd00" d="M 971.5,830.5 C 972.833,831.167 972.833,831.167 971.5,830.5 Z"/></g>
<g><path style="opacity:0.004" fill="#fecd00" d="M 1135.5,851.5 C 1136.53,851.897 1136.69,852.563 1136,853.5C 1135.54,852.906 1135.37,852.239 1135.5,851.5 Z"/></g>
<g><path style="opacity:0.004" fill="#fecd00" d="M 1292.5,851.5 C 1293.53,851.897 1293.69,852.563 1293,853.5C 1292.54,852.906 1292.37,852.239 1292.5,851.5 Z"/></g>
<g><path style="opacity:0.004" fill="#fecd00" d="M 1219.5,894.5 C 1220.83,895.167 1220.83,895.167 1219.5,894.5 Z"/></g>
<g><path style="opacity:0.004" fill="#fecd00" d="M 1289.5,930.5 C 1288.83,929.167 1288.83,929.167 1289.5,930.5 Z"/></g>
<g><path style="opacity:0.004" fill="#fecd00" d="M 1801.5,938.5 C 1802.83,939.167 1802.83,939.167 1801.5,938.5 Z"/></g>
<g><path style="opacity:0.004" fill="#fecd00" d="M 1272.5,940.5 C 1271.83,939.167 1271.83,939.167 1272.5,940.5 Z"/></g>
<g><path style="opacity:0.004" fill="#fecd00" d="M 1250.5,952.5 C 1249.83,951.167 1249.83,951.167 1250.5,952.5 Z"/></g>
<g><path style="opacity:0.004" fill="#fecd00" d="M 832.5,1059.5 C 833.833,1060.17 833.833,1060.17 832.5,1059.5 Z"/></g>
<g><path style="opacity:0.939" fill="#fecd00" d="M 934.5,1214.5 C 935.952,1215.3 937.618,1215.8 939.5,1216C 938.167,1216.67 938.167,1217.33 939.5,1218C 941.134,1218.49 942.801,1218.66 944.5,1218.5C 944.433,1221.77 946.099,1223.27 949.5,1223C 952.933,1226.14 956.933,1228.14 961.5,1229C 963.891,1230.31 963.891,1231.31 961.5,1232C 966.334,1233.08 970.668,1235.25 974.5,1238.5C 976.115,1239.15 977.782,1239.65 979.5,1240C 980.833,1240.67 980.833,1241.33 979.5,1242C 983.569,1242.15 985.902,1243.81 986.5,1247C 992.939,1248.8 998.939,1251.46 1004.5,1255C 1003.17,1255.67 1003.17,1256.33 1004.5,1257C 1007.91,1259.04 1011.58,1260.54 1015.5,1261.5C 1015.29,1262.09 1014.96,1262.59 1014.5,1263C 1017.56,1262.89 1019.89,1264.06 1021.5,1266.5C 1025.39,1267.93 1029.06,1269.77 1032.5,1272C 1032.17,1272.33 1031.83,1272.67 1031.5,1273C 1033.17,1273.33 1034.83,1273.67 1036.5,1274C 1040.84,1276.89 1045.17,1279.73 1049.5,1282.5C 1051.74,1283.62 1054.07,1284.79 1056.5,1286C 1055.17,1286.67 1055.17,1287.33 1056.5,1288C 1062.59,1290.55 1068.59,1293.38 1074.5,1296.5C 1074.29,1297.09 1073.96,1297.59 1073.5,1298C 1077.88,1298.71 1081.54,1300.71 1084.5,1304C 1086.96,1305.62 1089.46,1306.12 1092,1305.5C 1092.46,1306.74 1091.96,1307.58 1090.5,1308C 1094.27,1307.81 1097.1,1309.31 1099,1312.5C 1103.45,1314.18 1106.95,1316.35 1109.5,1319C 1110.78,1319.68 1111.95,1319.52 1113,1318.5C 1113.58,1320 1114.42,1321.33 1115.5,1322.5C 1119.02,1324.43 1122.69,1326.09 1126.5,1327.5C 1126.29,1328.09 1125.96,1328.59 1125.5,1329C 1127.58,1329.19 1129.58,1329.69 1131.5,1330.5C 1133.6,1332.58 1135.93,1334.42 1138.5,1336C 1140.17,1336.33 1141.83,1336.67 1143.5,1337C 1144.83,1337.67 1144.83,1338.33 1143.5,1339C 1146.18,1339.25 1148.51,1340.25 1150.5,1342C 1150.17,1342.33 1149.83,1342.67 1149.5,1343C 1154.24,1345.94 1159.24,1348.44 1164.5,1350.5C 1165.96,1349.39 1166.96,1349.89 1167.5,1352C 1167.17,1352.33 1166.83,1352.67 1166.5,1353C 1172.23,1355.66 1177.9,1358.49 1183.5,1361.5C 1184.39,1362.32 1184.72,1363.32 1184.5,1364.5C 1187.61,1364.17 1189.94,1365.34 1191.5,1368C 1194.73,1369.43 1197.89,1370.93 1201,1372.5C 1202.67,1371.66 1202.83,1372.16 1201.5,1374C 1204.57,1373.95 1206.9,1375.12 1208.5,1377.5C 1212.24,1379.94 1216.24,1381.78 1220.5,1383C 1219.17,1383.67 1219.17,1384.33 1220.5,1385C 1223.23,1385 1225.23,1386.17 1226.5,1388.5C 1227.72,1389.71 1228.89,1389.71 1230,1388.5C 1231.54,1391.52 1234.04,1392.85 1237.5,1392.5C 1237.5,1393.5 1237.5,1394.5 1237.5,1395.5C 1239.29,1395.21 1240.95,1395.55 1242.5,1396.5C 1247.38,1401.45 1253.38,1404.61 1260.5,1406C 1259.36,1406.74 1259.36,1407.57 1260.5,1408.5C 1266.57,1411.91 1272.24,1414.74 1277.5,1417C 1278.83,1417.67 1278.83,1418.33 1277.5,1419C 1281.65,1419.15 1284.81,1420.98 1287,1424.5C 1288.81,1423.39 1289.65,1424.06 1289.5,1426.5C 1291.2,1426.34 1292.87,1426.51 1294.5,1427C 1297.17,1429.33 1299.83,1431.67 1302.5,1434C 1306.44,1435.24 1310.11,1436.91 1313.5,1439C 1313.17,1439.33 1312.83,1439.67 1312.5,1440C 1317.54,1442.85 1322.87,1445.18 1328.5,1447C 1329.33,1447.91 1330.33,1448.58 1331.5,1449C 1331.17,1449.33 1330.83,1449.67 1330.5,1450C 1331.76,1451.11 1332.93,1451.28 1334,1450.5C 1336.5,1453.13 1339.34,1455.3 1342.5,1457C 1344.62,1458.58 1346.79,1458.75 1349,1457.5C 1349.46,1458.74 1348.96,1459.58 1347.5,1460C 1349.5,1460.67 1351.5,1461.33 1353.5,1462C 1354.34,1463.01 1354.67,1464.18 1354.5,1465.5C 1357.84,1465.65 1360.67,1466.98 1363,1469.5C 1364.16,1468.81 1365.33,1468.65 1366.5,1469C 1366.04,1469.41 1365.71,1469.91 1365.5,1470.5C 1367.08,1471.3 1368.74,1471.8 1370.5,1472C 1371.34,1473.01 1371.67,1474.18 1371.5,1475.5C 1375.23,1475.75 1378.56,1477.09 1381.5,1479.5C 1382.44,1479.39 1383.28,1479.06 1384,1478.5C 1384.46,1479.74 1383.96,1480.58 1382.5,1481C 1384.44,1481.81 1386.44,1482.31 1388.5,1482.5C 1388.5,1483.5 1388.5,1484.5 1388.5,1485.5C 1391.56,1485.14 1394.23,1485.98 1396.5,1488C 1396.17,1488.33 1395.83,1488.67 1395.5,1489C 1398.96,1490.99 1402.62,1492.15 1406.5,1492.5C 1406.43,1495.77 1408.1,1497.27 1411.5,1497C 1414.37,1499.52 1417.54,1501.69 1421,1503.5C 1422.49,1502.8 1423.99,1503.14 1425.5,1504.5C 1424.97,1505.19 1424.31,1505.69 1423.5,1506C 1426.49,1506.22 1429.15,1507.22 1431.5,1509C 1431.17,1509.33 1430.83,1509.67 1430.5,1510C 1434.17,1511.33 1437.83,1512.67 1441.5,1514C 1442.83,1514.67 1442.83,1515.33 1441.5,1516C 1443.26,1516.2 1444.92,1516.7 1446.5,1517.5C 1447.28,1520.19 1448.78,1521.19 1451,1520.5C 1454.47,1522.48 1457.64,1524.81 1460.5,1527.5C 1461.09,1527.29 1461.59,1526.96 1462,1526.5C 1462.9,1527.7 1464.07,1528.53 1465.5,1529C 1464.17,1529.67 1464.17,1530.33 1465.5,1531C 1471.04,1533.04 1476.37,1535.37 1481.5,1538C 1482.34,1539.01 1482.67,1540.18 1482.5,1541.5C 1486.13,1542.06 1489.46,1543.39 1492.5,1545.5C 1493.44,1545.39 1494.28,1545.06 1495,1544.5C 1495.46,1545.74 1494.96,1546.58 1493.5,1547C 1495.56,1547.31 1497.56,1547.81 1499.5,1548.5C 1500.71,1549.27 1500.71,1550.11 1499.5,1551C 1501.58,1551.19 1503.58,1551.69 1505.5,1552.5C 1506.89,1554.74 1508.89,1556.07 1511.5,1556.5C 1517.16,1560.62 1523.16,1564.46 1529.5,1568C 1530.45,1568.62 1531.28,1568.45 1532,1567.5C 1532.9,1568.77 1534.07,1569.77 1535.5,1570.5C 1535.29,1571.09 1534.96,1571.59 1534.5,1572C 1537.9,1572.01 1540.57,1573.35 1542.5,1576C 1545.92,1578.04 1549.59,1579.54 1553.5,1580.5C 1553.29,1581.09 1552.96,1581.59 1552.5,1582C 1557.41,1584.16 1562.08,1586.83 1566.5,1590C 1568.11,1590.72 1569.61,1590.55 1571,1589.5C 1571.46,1590.74 1570.96,1591.58 1569.5,1592C 1570.77,1592.31 1571.93,1592.81 1573,1593.5C 1574.36,1592.74 1575.53,1593.24 1576.5,1595C 1576.17,1595.33 1575.83,1595.67 1575.5,1596C 1579.97,1597.41 1584.31,1599.07 1588.5,1601C 1588.04,1601.41 1587.71,1601.91 1587.5,1602.5C 1590.73,1602.75 1593.07,1604.25 1594.5,1607C 1597.56,1607.06 1599.89,1608.39 1601.5,1611C 1603.99,1612.46 1606.65,1613.46 1609.5,1614C 1614.3,1619.11 1620.13,1622.61 1627,1624.5C 1627.33,1624.17 1627.67,1623.83 1628,1623.5C 1632.91,1626.34 1633.91,1630.34 1631,1635.5C 1629.3,1636.41 1627.47,1636.74 1625.5,1636.5C 1625.67,1637.82 1625.34,1638.99 1624.5,1640C 1620,1640.75 1616.33,1642.75 1613.5,1646C 1609.79,1648.32 1605.79,1650.32 1601.5,1652C 1602.96,1652.42 1603.46,1653.26 1603,1654.5C 1601.27,1653.42 1599.44,1653.26 1597.5,1654C 1595.62,1656.11 1593.29,1657.44 1590.5,1658C 1590.83,1658.33 1591.17,1658.67 1591.5,1659C 1589.47,1660.68 1587.14,1661.68 1584.5,1662C 1586.27,1662.54 1586.6,1663.37 1585.5,1664.5C 1583.42,1663.24 1581.42,1663.41 1579.5,1665C 1576.8,1666.41 1574.46,1668.25 1572.5,1670.5C 1570.58,1671.31 1568.58,1671.81 1566.5,1672C 1566.96,1672.41 1567.29,1672.91 1567.5,1673.5C 1561.21,1676.14 1555.21,1679.14 1549.5,1682.5C 1549.71,1683.09 1550.04,1683.59 1550.5,1684C 1546.38,1685.48 1542.38,1687.15 1538.5,1689C 1532.51,1693.66 1526.18,1697.83 1519.5,1701.5C 1517.95,1702.45 1516.29,1702.79 1514.5,1702.5C 1513.98,1705.77 1511.98,1707.11 1508.5,1706.5C 1506.46,1705.99 1504.63,1705.99 1503,1706.5C 1501.81,1705.44 1501.31,1704.1 1501.5,1702.5C 1498.81,1702.66 1496.48,1701.83 1494.5,1700C 1494.83,1699.67 1495.17,1699.33 1495.5,1699C 1486.08,1694.69 1476.41,1689.86 1466.5,1684.5C 1466.5,1683.5 1466.5,1682.5 1466.5,1681.5C 1463.14,1682.21 1460.8,1681.04 1459.5,1678C 1456.16,1675.84 1452.5,1674.5 1448.5,1674C 1448.96,1673.59 1449.29,1673.09 1449.5,1672.5C 1444.7,1669.91 1440.03,1667.08 1435.5,1664C 1434.1,1663.41 1432.77,1663.57 1431.5,1664.5C 1430.29,1663.73 1430.29,1662.89 1431.5,1662C 1428.86,1661.68 1426.53,1660.68 1424.5,1659C 1424.83,1658.67 1425.17,1658.33 1425.5,1658C 1421.82,1656.21 1418.15,1654.54 1414.5,1653C 1415.83,1652.33 1415.83,1651.67 1414.5,1651C 1409.14,1649.66 1404.47,1646.99 1400.5,1643C 1399.55,1642.38 1398.72,1642.55 1398,1643.5C 1396.4,1640.53 1394.07,1639.53 1391,1640.5C 1390.51,1639.21 1390.34,1637.87 1390.5,1636.5C 1387.39,1636.83 1385.06,1635.66 1383.5,1633C 1379.61,1631.78 1375.94,1630.11 1372.5,1628C 1372.83,1627.67 1373.17,1627.33 1373.5,1627C 1368.25,1624.17 1362.92,1621.34 1357.5,1618.5C 1356.32,1619.85 1355.32,1619.69 1354.5,1618C 1354.83,1617.67 1355.17,1617.33 1355.5,1617C 1354.05,1615.88 1352.38,1615.22 1350.5,1615C 1349.83,1614 1349.17,1613 1348.5,1612C 1345.95,1610.62 1343.28,1609.46 1340.5,1608.5C 1337.65,1610.14 1336.98,1609.48 1338.5,1606.5C 1336.54,1605.71 1334.54,1605.04 1332.5,1604.5C 1331.61,1603.68 1331.28,1602.68 1331.5,1601.5C 1328.4,1601.91 1326.07,1600.74 1324.5,1598C 1320.56,1596.76 1316.89,1595.09 1313.5,1593C 1313.83,1592.67 1314.17,1592.33 1314.5,1592C 1311.64,1591.46 1308.97,1590.46 1306.5,1589C 1306.83,1588.67 1307.17,1588.33 1307.5,1588C 1305.44,1587.69 1303.44,1587.69 1301.5,1588C 1303.12,1587.15 1303.46,1586.15 1302.5,1585C 1301.17,1584.67 1299.83,1584.33 1298.5,1584C 1295.33,1581.91 1292.33,1579.58 1289.5,1577C 1287.43,1576.46 1285.6,1576.96 1284,1578.5C 1283.69,1577.26 1284.19,1576.26 1285.5,1575.5C 1283.92,1574.7 1282.26,1574.2 1280.5,1574C 1278.42,1571.58 1276.08,1569.41 1273.5,1567.5C 1270.26,1566.04 1266.93,1564.87 1263.5,1564C 1258.94,1559.92 1253.44,1556.09 1247,1552.5C 1245.93,1553.28 1244.76,1553.11 1243.5,1552C 1243.83,1551.67 1244.17,1551.33 1244.5,1551C 1242.05,1550.28 1239.72,1549.28 1237.5,1548C 1238.83,1547.33 1238.83,1546.67 1237.5,1546C 1231.86,1543.96 1226.53,1541.46 1221.5,1538.5C 1220.61,1537.68 1220.28,1536.68 1220.5,1535.5C 1217.08,1534.88 1213.91,1533.54 1211,1531.5C 1208.63,1532.94 1208.13,1532.44 1209.5,1530C 1207.11,1529.32 1204.77,1528.49 1202.5,1527.5C 1202.71,1526.91 1203.04,1526.41 1203.5,1526C 1200.44,1525.85 1198.11,1524.52 1196.5,1522C 1194.83,1521.67 1193.17,1521.33 1191.5,1521C 1191.83,1520.67 1192.17,1520.33 1192.5,1520C 1188.88,1519.72 1186.38,1517.88 1185,1514.5C 1184.67,1514.83 1184.33,1515.17 1184,1515.5C 1178.83,1512 1173.33,1509.16 1167.5,1507C 1167.96,1506.59 1168.29,1506.09 1168.5,1505.5C 1162.8,1501.98 1156.8,1498.98 1150.5,1496.5C 1150.71,1495.91 1151.04,1495.41 1151.5,1495C 1149.83,1494.67 1148.17,1494.33 1146.5,1494C 1143.54,1491.18 1140.21,1488.85 1136.5,1487C 1134.91,1487.62 1133.57,1487.28 1132.5,1486C 1132.83,1485.67 1133.17,1485.33 1133.5,1485C 1130.82,1484.75 1128.49,1483.75 1126.5,1482C 1126.83,1481.67 1127.17,1481.33 1127.5,1481C 1123.67,1478.82 1119.67,1477.15 1115.5,1476C 1116.83,1475.33 1116.83,1474.67 1115.5,1474C 1114.17,1473.67 1112.83,1473.33 1111.5,1473C 1109.19,1470.51 1106.52,1468.51 1103.5,1467C 1101.87,1466.51 1100.2,1466.34 1098.5,1466.5C 1098.5,1465.5 1098.5,1464.5 1098.5,1463.5C 1097.13,1463.66 1095.79,1463.49 1094.5,1463C 1091.5,1460.67 1088.5,1458.33 1085.5,1456C 1083.89,1455.28 1082.39,1455.45 1081,1456.5C 1080.38,1455.55 1080.55,1454.72 1081.5,1454C 1077.54,1454.35 1074.87,1452.68 1073.5,1449C 1068.3,1446.66 1063.63,1444.49 1059.5,1442.5C 1058.74,1441.73 1057.74,1441.23 1056.5,1441C 1057.83,1440.33 1057.83,1439.67 1056.5,1439C 1051.21,1435.78 1045.55,1433.11 1039.5,1431C 1039.96,1430.59 1040.29,1430.09 1040.5,1429.5C 1038.5,1428.83 1036.5,1428.17 1034.5,1427.5C 1034.17,1426.83 1033.83,1426.17 1033.5,1425.5C 1030.47,1424.64 1027.81,1423.14 1025.5,1421C 1024.22,1420.32 1023.05,1420.48 1022,1421.5C 1021.38,1420.55 1021.55,1419.72 1022.5,1419C 1021.17,1418.67 1019.83,1418.33 1018.5,1418C 1014.35,1413.72 1009.68,1411.05 1004.5,1410C 1005.83,1409.33 1005.83,1408.67 1004.5,1408C 1000.86,1408.29 998.358,1406.79 997,1403.5C 996.667,1403.83 996.333,1404.17 996,1404.5C 993.842,1401.7 991.009,1400.37 987.5,1400.5C 987.5,1399.5 987.5,1398.5 987.5,1397.5C 984.136,1398.21 981.803,1397.04 980.5,1394C 977.242,1392.2 973.909,1390.7 970.5,1389.5C 969.047,1387.77 967.047,1386.77 964.5,1386.5C 963.289,1385.73 963.289,1384.89 964.5,1384C 959.259,1382.74 954.759,1380.24 951,1376.5C 950.667,1376.83 950.333,1377.17 950,1377.5C 948.933,1376.81 947.766,1376.31 946.5,1376C 945.167,1375.33 945.167,1374.67 946.5,1374C 943.483,1373.5 941.149,1372 939.5,1369.5C 936.417,1367.64 933.084,1366.47 929.5,1366C 928.663,1364.99 928.33,1363.82 928.5,1362.5C 924.759,1363.4 922.759,1362.07 922.5,1358.5C 918.882,1357.46 915.215,1356.3 911.5,1355C 910.167,1354.33 910.167,1353.67 911.5,1353C 906.385,1350.24 901.218,1347.41 896,1344.5C 893.634,1345.94 893.134,1345.44 894.5,1343C 892.5,1342.33 890.5,1341.67 888.5,1341C 888.167,1340 887.833,1339 887.5,1338C 884.139,1336.99 880.972,1335.49 878,1333.5C 877.667,1333.83 877.333,1334.17 877,1334.5C 876.024,1332.11 874.191,1330.95 871.5,1331C 870.833,1330 870.167,1329 869.5,1328C 866.763,1326.94 864.263,1325.44 862,1323.5C 861.127,1323.74 860.293,1324.07 859.5,1324.5C 858.289,1323.73 858.289,1322.89 859.5,1322C 857.5,1321.67 855.5,1321.33 853.5,1321C 852.663,1319.99 852.33,1318.82 852.5,1317.5C 849.722,1317.98 847.722,1316.98 846.5,1314.5C 837.658,1310.16 829.158,1305.16 821,1299.5C 818.342,1300.69 817.176,1299.69 817.5,1296.5C 814.031,1297.11 812.031,1295.78 811.5,1292.5C 807.328,1291.75 803.328,1290.42 799.5,1288.5C 799.709,1287.91 800.043,1287.41 800.5,1287C 794.672,1283.8 788.672,1280.8 782.5,1278C 782.833,1277.67 783.167,1277.33 783.5,1277C 781.899,1276.73 780.399,1276.23 779,1275.5C 778.667,1275.83 778.333,1276.17 778,1276.5C 776.128,1275.18 775.295,1273.68 775.5,1272C 770.444,1269.82 765.444,1267.48 760.5,1265C 759.833,1264 759.167,1263 758.5,1262C 752.654,1259.64 746.987,1257.14 741.5,1254.5C 741.5,1253.5 741.5,1252.5 741.5,1251.5C 738.712,1251.92 736.712,1250.92 735.5,1248.5C 732.683,1247.71 730.183,1246.38 728,1244.5C 727.586,1244.96 727.086,1245.29 726.5,1245.5C 725.646,1244.48 724.646,1243.64 723.5,1243C 723.833,1242.67 724.167,1242.33 724.5,1242C 722.744,1241.8 721.078,1241.3 719.5,1240.5C 716.632,1238.25 713.632,1236.08 710.5,1234C 707.659,1235.01 706.326,1233.84 706.5,1230.5C 704.801,1230.66 703.134,1230.49 701.5,1230C 699.302,1227.83 696.969,1225.83 694.5,1224C 692.423,1223.81 690.423,1223.31 688.5,1222.5C 688.709,1221.91 689.043,1221.41 689.5,1221C 685.19,1219.04 680.856,1217.04 676.5,1215C 675.874,1214.25 675.374,1213.42 675,1212.5C 675.156,1163.69 674.323,1115.02 672.5,1066.5C 672.977,1065.52 673.643,1064.69 674.5,1064C 676.698,1063.63 678.865,1063.13 681,1062.5C 682.826,1063.01 682.993,1063.84 681.5,1065C 684.748,1065.08 687.081,1066.58 688.5,1069.5C 692.444,1071.31 696.444,1072.81 700.5,1074C 699.833,1074.33 699.167,1074.67 698.5,1075C 700.5,1075.67 702.5,1076.33 704.5,1077C 705.337,1078.01 705.67,1079.18 705.5,1080.5C 709.333,1081.02 713,1082.02 716.5,1083.5C 716.5,1084.5 716.5,1085.5 716.5,1086.5C 719.969,1085.89 721.969,1087.22 722.5,1090.5C 726.212,1090.88 729.546,1092.21 732.5,1094.5C 733.772,1094.43 734.938,1094.1 736,1093.5C 736.167,1093.83 736.333,1094.17 736.5,1094.5C 735.624,1095.25 734.624,1095.75 733.5,1096C 735.608,1096.36 737.608,1097.03 739.5,1098C 740.833,1098.67 740.833,1099.33 739.5,1100C 742.904,1100.01 745.57,1101.35 747.5,1104C 750.681,1105.63 754.014,1106.97 757.5,1108C 757.833,1109 758.167,1110 758.5,1111C 759.833,1111.33 761.167,1111.67 762.5,1112C 766.469,1115.61 771.136,1117.95 776.5,1119C 776.043,1119.41 775.709,1119.91 775.5,1120.5C 779.688,1123.17 784.021,1125.67 788.5,1128C 790.167,1128.33 791.833,1128.67 793.5,1129C 793.043,1129.41 792.709,1129.91 792.5,1130.5C 797.086,1132.75 801.419,1135.42 805.5,1138.5C 807.353,1139.76 809.186,1139.76 811,1138.5C 811.456,1139.74 810.956,1140.58 809.5,1141C 812.076,1142.12 814.743,1143.12 817.5,1144C 817.167,1144.33 816.833,1144.67 816.5,1145C 820.663,1147.18 824.997,1148.84 829.5,1150C 828.692,1150.31 828.025,1150.81 827.5,1151.5C 829.078,1152.3 830.744,1152.8 832.5,1153C 835.167,1155.33 837.833,1157.67 840.5,1160C 843.79,1161.26 847.124,1162.43 850.5,1163.5C 850.833,1164.17 851.167,1164.83 851.5,1165.5C 855.112,1167.13 858.445,1169.13 861.5,1171.5C 864.556,1171.94 867.223,1173.1 869.5,1175C 869.167,1175.33 868.833,1175.67 868.5,1176C 875.963,1180.48 883.629,1184.48 891.5,1188C 894.906,1191.86 899.239,1194.36 904.5,1195.5C 904.291,1196.09 903.957,1196.59 903.5,1197C 905.167,1197.33 906.833,1197.67 908.5,1198C 909.337,1199.01 909.67,1200.18 909.5,1201.5C 912.632,1201.78 915.632,1202.62 918.5,1204C 917.112,1204.89 917.278,1205.39 919,1205.5C 919.873,1205.26 920.707,1204.93 921.5,1204.5C 922.711,1205.27 922.711,1206.11 921.5,1207C 925.746,1209.42 930.079,1211.92 934.5,1214.5 Z"/></g>
<g><path style="opacity:0.927" fill="#fecd00" d="M 1486.5,1379.5 C 1483.83,1379.5 1481.17,1379.5 1478.5,1379.5C 1478.61,1378.88 1478.94,1378.38 1479.5,1378C 1477.61,1377.03 1475.61,1376.36 1473.5,1376C 1469.08,1370.59 1463.42,1367.26 1456.5,1366C 1453.83,1363.67 1451.17,1361.33 1448.5,1359C 1445.35,1358.06 1442.51,1356.56 1440,1354.5C 1439.33,1357.03 1438.5,1357.03 1437.5,1354.5C 1437.71,1353.91 1438.04,1353.41 1438.5,1353C 1433.43,1349.84 1427.43,1347.17 1420.5,1345C 1419.17,1344.33 1419.17,1343.67 1420.5,1343C 1417.58,1342.32 1415.24,1340.82 1413.5,1338.5C 1412.17,1337.17 1410.83,1337.17 1409.5,1338.5C 1409.26,1337.75 1408.93,1336.92 1408.5,1336C 1406.29,1334.96 1403.95,1334.29 1401.5,1334C 1401.96,1333.59 1402.29,1333.09 1402.5,1332.5C 1400.92,1331.7 1399.26,1331.2 1397.5,1331C 1396.66,1329.99 1396.33,1328.82 1396.5,1327.5C 1395.13,1327.66 1393.79,1327.49 1392.5,1327C 1390.35,1324.67 1387.68,1323.34 1384.5,1323C 1384.83,1322.67 1385.17,1322.33 1385.5,1322C 1382.69,1321.98 1380.36,1320.98 1378.5,1319C 1378.83,1318.67 1379.17,1318.33 1379.5,1318C 1376.51,1317.57 1373.85,1316.4 1371.5,1314.5C 1369.65,1313.24 1367.81,1313.24 1366,1314.5C 1365.83,1314.17 1365.67,1313.83 1365.5,1313.5C 1366.38,1312.75 1367.38,1312.25 1368.5,1312C 1365.22,1310.88 1361.88,1309.88 1358.5,1309C 1359.28,1307.93 1359.11,1306.76 1358,1305.5C 1357.33,1306.83 1356.67,1306.83 1356,1305.5C 1355.67,1303.15 1355.83,1300.82 1356.5,1298.5C 1358.86,1298.66 1361.19,1298.5 1363.5,1298C 1362.17,1297.33 1362.17,1296.67 1363.5,1296C 1366.02,1295.41 1368.02,1294.25 1369.5,1292.5C 1373.32,1291.21 1376.99,1289.54 1380.5,1287.5C 1380.29,1286.91 1379.96,1286.41 1379.5,1286C 1381.83,1285 1384.17,1284 1386.5,1283C 1386.17,1282.67 1385.83,1282.33 1385.5,1282C 1387.17,1281.67 1388.83,1281.33 1390.5,1281C 1396.4,1276.8 1403.07,1272.64 1410.5,1268.5C 1412.05,1267.55 1413.71,1267.21 1415.5,1267.5C 1416.08,1264.36 1418.08,1262.86 1421.5,1263C 1420.17,1262.33 1420.17,1261.67 1421.5,1261C 1427.62,1259.07 1433.29,1256.41 1438.5,1253C 1439.83,1252.33 1439.83,1251.67 1438.5,1251C 1444.18,1249.84 1448.85,1247.17 1452.5,1243C 1453.83,1242.67 1455.17,1242.33 1456.5,1242C 1455.17,1241.33 1455.17,1240.67 1456.5,1240C 1457.45,1239.38 1458.28,1239.55 1459,1240.5C 1463.89,1237.18 1469.05,1234.34 1474.5,1232C 1473.54,1230.85 1473.88,1229.85 1475.5,1229C 1480.99,1227.42 1485.99,1225.09 1490.5,1222C 1491.5,1219.24 1493.5,1217.91 1496.5,1218C 1497.83,1217.33 1497.83,1216.67 1496.5,1216C 1499.8,1216.86 1502.47,1215.69 1504.5,1212.5C 1508.98,1209.76 1513.65,1207.26 1518.5,1205C 1518.17,1204.67 1517.83,1204.33 1517.5,1204C 1520.5,1203 1523.5,1202 1526.5,1201C 1525.54,1199.85 1525.88,1198.85 1527.5,1198C 1529.26,1197.8 1530.92,1197.3 1532.5,1196.5C 1531.5,1194.32 1532.16,1193.99 1534.5,1195.5C 1538.15,1193.26 1541.49,1190.76 1544.5,1188C 1548.17,1186.33 1551.83,1184.67 1555.5,1183C 1556.83,1182.33 1556.83,1181.67 1555.5,1181C 1556.45,1180.38 1557.28,1180.55 1558,1181.5C 1560.63,1178.77 1563.79,1176.94 1567.5,1176C 1566.54,1174.85 1566.88,1173.85 1568.5,1173C 1573.13,1172.18 1577.13,1170.18 1580.5,1167C 1581.83,1166.67 1583.17,1166.33 1584.5,1166C 1583.54,1164.85 1583.88,1163.85 1585.5,1163C 1590.27,1162.48 1594.27,1160.48 1597.5,1157C 1600.5,1157.09 1602.5,1155.76 1603.5,1153C 1604.83,1152.67 1606.17,1152.33 1607.5,1152C 1608.83,1151.33 1608.83,1150.67 1607.5,1150C 1618.81,1145.6 1629.14,1139.6 1638.5,1132C 1640.17,1131.67 1641.83,1131.33 1643.5,1131C 1642.83,1130.33 1642.17,1129.67 1641.5,1129C 1643.13,1129.2 1644.79,1129.2 1646.5,1129C 1651.31,1126.34 1655.98,1123.51 1660.5,1120.5C 1660.29,1119.91 1659.96,1119.41 1659.5,1119C 1664.71,1117.73 1669.38,1115.39 1673.5,1112C 1674.79,1111.51 1676.13,1111.34 1677.5,1111.5C 1677.51,1108.64 1678.68,1107.64 1681,1108.5C 1684.29,1106.18 1687.46,1103.68 1690.5,1101C 1692.17,1100.67 1693.83,1100.33 1695.5,1100C 1694.17,1098.16 1694.33,1097.66 1696,1098.5C 1697.65,1097.28 1699.48,1096.45 1701.5,1096C 1700.55,1095.28 1700.38,1094.45 1701,1093.5C 1703.82,1095.08 1705.99,1094.42 1707.5,1091.5C 1709.17,1090.83 1710.83,1090.17 1712.5,1089.5C 1712.29,1088.91 1711.96,1088.41 1711.5,1088C 1713.74,1087.02 1716.07,1086.52 1718.5,1086.5C 1718.5,1085.5 1718.5,1084.5 1718.5,1083.5C 1720.2,1083.66 1721.87,1083.49 1723.5,1083C 1725,1081.13 1727,1080.13 1729.5,1080C 1729.83,1079 1730.17,1078 1730.5,1077C 1731.77,1076.69 1732.93,1076.19 1734,1075.5C 1734.91,1076.65 1735.75,1076.49 1736.5,1075C 1736.17,1074.67 1735.83,1074.33 1735.5,1074C 1739.7,1072.79 1743.7,1071.12 1747.5,1069C 1747.17,1068.67 1746.83,1068.33 1746.5,1068C 1748.49,1066.25 1750.82,1065.25 1753.5,1065C 1752.17,1064.33 1752.17,1063.67 1753.5,1063C 1757.03,1062.5 1760.03,1063.5 1762.5,1066C 1761.81,1067.07 1761.31,1068.23 1761,1069.5C 1760.67,1117.17 1760.33,1164.83 1760,1212.5C 1757.26,1215.04 1754.43,1217.37 1751.5,1219.5C 1749.58,1220.31 1747.58,1220.81 1745.5,1221C 1745.96,1221.41 1746.29,1221.91 1746.5,1222.5C 1740.59,1225.07 1734.92,1227.9 1729.5,1231C 1728.17,1231.67 1728.17,1232.33 1729.5,1233C 1721.78,1235.52 1715.11,1239.52 1709.5,1245C 1706.64,1245.54 1703.97,1246.54 1701.5,1248C 1699.94,1250.66 1697.61,1251.83 1694.5,1251.5C 1694.5,1252.5 1694.5,1253.5 1694.5,1254.5C 1691.04,1254.37 1689.04,1255.54 1688.5,1258C 1684.7,1259.07 1681.03,1260.41 1677.5,1262C 1676.17,1262.67 1676.17,1263.33 1677.5,1264C 1675.61,1264.97 1673.61,1265.64 1671.5,1266C 1670.17,1266.67 1670.17,1267.33 1671.5,1268C 1666.01,1269.5 1661.34,1272.17 1657.5,1276C 1656.17,1276.33 1654.83,1276.67 1653.5,1277C 1653.83,1277.33 1654.17,1277.67 1654.5,1278C 1648.13,1281.01 1641.8,1284.01 1635.5,1287C 1636.46,1288.15 1636.12,1289.15 1634.5,1290C 1631.5,1291 1628.5,1292 1625.5,1293C 1624.55,1295.91 1622.55,1297.08 1619.5,1296.5C 1619.67,1297.82 1619.34,1298.99 1618.5,1300C 1615.21,1300.25 1612.21,1301.25 1609.5,1303C 1608.31,1304.02 1607.31,1305.19 1606.5,1306.5C 1599.3,1310.51 1591.97,1314.35 1584.5,1318C 1585.46,1319.15 1585.12,1320.15 1583.5,1321C 1581.74,1321.2 1580.08,1321.7 1578.5,1322.5C 1578.71,1323.09 1579.04,1323.59 1579.5,1324C 1578.33,1324.35 1577.16,1324.19 1576,1323.5C 1573.67,1326.02 1570.84,1327.35 1567.5,1327.5C 1567.72,1328.68 1567.39,1329.68 1566.5,1330.5C 1564.67,1331.05 1563,1331.89 1561.5,1333C 1561.83,1333.33 1562.17,1333.67 1562.5,1334C 1558.61,1334.03 1555.45,1335.53 1553,1338.5C 1551.93,1337.72 1550.76,1337.89 1549.5,1339C 1549.83,1339.33 1550.17,1339.67 1550.5,1340C 1548.28,1341.28 1545.95,1342.28 1543.5,1343C 1544.45,1343.72 1544.62,1344.55 1544,1345.5C 1542.61,1344.45 1541.11,1344.28 1539.5,1345C 1539.83,1345.33 1540.17,1345.67 1540.5,1346C 1535.53,1347.91 1530.86,1350.25 1526.5,1353C 1526.83,1353.33 1527.17,1353.67 1527.5,1354C 1522.29,1355.91 1517.63,1358.58 1513.5,1362C 1512.21,1362.49 1510.87,1362.66 1509.5,1362.5C 1509.72,1363.68 1509.39,1364.68 1508.5,1365.5C 1505.06,1366.46 1501.73,1367.63 1498.5,1369C 1497.17,1369.67 1497.17,1370.33 1498.5,1371C 1496.28,1372.28 1493.95,1373.28 1491.5,1374C 1492.83,1374.67 1492.83,1375.33 1491.5,1376C 1489.39,1376.36 1487.39,1377.03 1485.5,1378C 1486.06,1378.38 1486.39,1378.88 1486.5,1379.5 Z"/></g>
<g><path style="opacity:0.004" fill="#fecd00" d="M 672.5,1068.5 C 673.665,1116 673.832,1163.66 673,1211.5C 672.5,1163.83 672.333,1116.17 672.5,1068.5 Z"/></g>
<g><path style="opacity:0.004" fill="#fecd00" d="M 1479.5,1127.5 C 1480.83,1128.17 1480.83,1128.17 1479.5,1127.5 Z"/></g>
<g><path style="opacity:0.004" fill="#fecd00" d="M 845.5,1159.5 C 846.833,1160.17 846.833,1160.17 845.5,1159.5 Z"/></g>
<g><path style="opacity:0.004" fill="#fecd00" d="M 1018.5,1168.5 C 1017.83,1169.17 1017.83,1169.17 1018.5,1168.5 Z"/></g>
<g><path style="opacity:0.004" fill="#fecd00" d="M 1057.5,1191.5 C 1056.83,1192.17 1056.83,1192.17 1057.5,1191.5 Z"/></g>
<g><path style="opacity:0.004" fill="#fecd00" d="M 934.5,1213.5 C 935.833,1214.17 935.833,1214.17 934.5,1213.5 Z"/></g>
<g><path style="opacity:0.004" fill="#fecd00" d="M 1166.5,1257.5 C 1167.83,1258.17 1167.83,1258.17 1166.5,1257.5 Z"/></g>
<g><path style="opacity:0.889" fill="#fefffe" d="M 342.5,1271.5 C 342.5,1274.83 342.5,1278.17 342.5,1281.5C 323.841,1282.4 305.174,1282.57 286.5,1282C 282.496,1282.88 278.496,1283.71 274.5,1284.5C 270.945,1282.84 267.278,1281.34 263.5,1280C 258.865,1275.2 259.865,1272.54 266.5,1272C 291.831,1271.5 317.164,1271.33 342.5,1271.5 Z"/></g>
<g><path style="opacity:0.004" fill="#fecd00" d="M 1049.5,1281.5 C 1050.83,1282.17 1050.83,1282.17 1049.5,1281.5 Z"/></g>
<g><path style="opacity:0.043" fill="#fefffe" d="M 278.5,1285.5 C 278.897,1284.47 279.563,1284.31 280.5,1285C 279.906,1285.46 279.239,1285.63 278.5,1285.5 Z"/></g>
<g><path style="opacity:0.004" fill="#fecd00" d="M 1369.5,1292.5 C 1368.83,1291.17 1368.83,1291.17 1369.5,1292.5 Z"/></g>
<g><path style="opacity:0.004" fill="#fecd00" d="M 1478.5,1379.5 C 1477.83,1380.17 1477.83,1380.17 1478.5,1379.5 Z"/></g>
<g><path style="opacity:0.004" fill="#fecd00" d="M 1486.5,1379.5 C 1487.83,1380.17 1487.83,1380.17 1486.5,1379.5 Z"/></g>
<g><path style="opacity:0.004" fill="#fecd00" d="M 1217.5,1380.5 C 1218.83,1381.17 1218.83,1381.17 1217.5,1380.5 Z"/></g>
<g><path style="opacity:0.004" fill="#fecd00" d="M 970.5,1389.5 C 969.833,1390.17 969.833,1390.17 970.5,1389.5 Z"/></g>
<g><path style="opacity:0.004" fill="#fecd00" d="M 1237.5,1391.5 C 1238.83,1392.17 1238.83,1392.17 1237.5,1391.5 Z"/></g>
<g><path style="opacity:0.936" fill="#fecd00" d="M 818.5,1490.5 C 822.669,1494.13 827.335,1497.3 832.5,1500C 835,1501.17 837.5,1502.33 840,1503.5C 841.243,1502.66 842.41,1503 843.5,1504.5C 843.291,1505.09 842.957,1505.59 842.5,1506C 844.256,1506.2 845.922,1506.7 847.5,1507.5C 849.878,1509.6 852.378,1511.6 855,1513.5C 856.667,1513.5 858.333,1513.5 860,1513.5C 860.617,1514.45 860.451,1515.28 859.5,1516C 866.882,1518.93 873.882,1522.6 880.5,1527C 882.167,1528 883.5,1529.33 884.5,1531C 886.974,1531.11 888.974,1532.11 890.5,1534C 892.134,1534.49 893.801,1534.66 895.5,1534.5C 895.5,1535.5 895.5,1536.5 895.5,1537.5C 898.969,1536.89 900.969,1538.22 901.5,1541.5C 904.599,1541.09 906.933,1542.26 908.5,1545C 911.328,1546.22 914.495,1547.39 918,1548.5C 919.826,1549.01 919.993,1549.84 918.5,1551C 924.222,1554.17 930.222,1557.17 936.5,1560C 935.167,1560.67 935.167,1561.33 936.5,1562C 942.466,1564.66 948.466,1567.33 954.5,1570C 954.043,1570.41 953.709,1570.91 953.5,1571.5C 959.126,1575.09 965.126,1578.09 971.5,1580.5C 971.291,1581.09 970.957,1581.59 970.5,1582C 972.167,1582.33 973.833,1582.67 975.5,1583C 979.076,1587.5 983.576,1589.67 989,1589.5C 989.617,1590.45 989.451,1591.28 988.5,1592C 991.167,1593 993.833,1594 996.5,1595C 995.833,1595.33 995.167,1595.67 994.5,1596C 997.29,1596.56 999.623,1597.89 1001.5,1600C 1003.5,1600.33 1005.5,1600.67 1007.5,1601C 1006.83,1601.33 1006.17,1601.67 1005.5,1602C 1007.29,1603.16 1009.29,1603.83 1011.5,1604C 1012.34,1605.01 1012.67,1606.18 1012.5,1607.5C 1015.88,1607.85 1018.88,1609.19 1021.5,1611.5C 1024.19,1609.75 1024.86,1610.25 1023.5,1613C 1025.26,1613.2 1026.92,1613.7 1028.5,1614.5C 1031.07,1616.67 1033.74,1618.84 1036.5,1621C 1039.2,1621.77 1041.7,1622.93 1044,1624.5C 1044.33,1624.17 1044.67,1623.83 1045,1623.5C 1048.95,1626.88 1053.12,1629.88 1057.5,1632.5C 1059.76,1634.25 1062.43,1635.42 1065.5,1636C 1064.17,1636.67 1064.17,1637.33 1065.5,1638C 1068.5,1637.91 1070.5,1639.24 1071.5,1642C 1074.65,1642.94 1077.49,1644.44 1080,1646.5C 1080.98,1644.21 1081.82,1644.54 1082.5,1647.5C 1088.22,1651.69 1094.55,1654.86 1101.5,1657C 1100.83,1657.33 1100.17,1657.67 1099.5,1658C 1103.97,1660.4 1108.3,1663.07 1112.5,1666C 1114.44,1666.74 1116.27,1666.58 1118,1665.5C 1118.49,1666.55 1118.33,1667.55 1117.5,1668.5C 1119.08,1669.3 1120.74,1669.8 1122.5,1670C 1123.34,1671.01 1123.67,1672.18 1123.5,1673.5C 1126.84,1673.65 1129.67,1674.98 1132,1677.5C 1133.16,1676.81 1134.33,1676.65 1135.5,1677C 1135.04,1677.41 1134.71,1677.91 1134.5,1678.5C 1136.08,1679.3 1137.74,1679.8 1139.5,1680C 1140.34,1681.01 1140.67,1682.18 1140.5,1683.5C 1141.87,1683.34 1143.21,1683.51 1144.5,1684C 1148.56,1686.76 1152.9,1689.1 1157.5,1691C 1158.83,1691.67 1158.83,1692.33 1157.5,1693C 1160.53,1693.13 1163.19,1694.13 1165.5,1696C 1165.17,1696.33 1164.83,1696.67 1164.5,1697C 1167.96,1699.02 1171.62,1700.52 1175.5,1701.5C 1178.08,1703.41 1180.42,1705.58 1182.5,1708C 1185.47,1708.47 1188.14,1709.64 1190.5,1711.5C 1192.88,1710.54 1193.88,1711.54 1193.5,1714.5C 1196.28,1714.02 1198.28,1715.02 1199.5,1717.5C 1202.49,1718.73 1205.49,1719.89 1208.5,1721C 1207.3,1721.65 1207.3,1722.15 1208.5,1722.5C 1209.61,1721.41 1210.61,1721.41 1211.5,1722.5C 1210.97,1723.19 1210.31,1723.69 1209.5,1724C 1214.88,1725.38 1219.55,1728.05 1223.5,1732C 1225.44,1732.74 1227.27,1732.58 1229,1731.5C 1229.62,1732.45 1229.45,1733.28 1228.5,1734C 1230.83,1735 1233.17,1736 1235.5,1737C 1235.04,1737.41 1234.71,1737.91 1234.5,1738.5C 1238.18,1740.2 1241.85,1741.86 1245.5,1743.5C 1247.4,1745.27 1249.73,1746.6 1252.5,1747.5C 1252.29,1748.09 1251.96,1748.59 1251.5,1749C 1255.5,1750.67 1259.5,1752.33 1263.5,1754C 1263.17,1754.33 1262.83,1754.67 1262.5,1755C 1264.74,1755.98 1267.07,1756.48 1269.5,1756.5C 1269.5,1757.5 1269.5,1758.5 1269.5,1759.5C 1272.19,1759.34 1274.52,1760.17 1276.5,1762C 1276.17,1762.33 1275.83,1762.67 1275.5,1763C 1278.86,1764.38 1282.19,1765.72 1285.5,1767C 1286.5,1769.76 1288.5,1771.09 1291.5,1771C 1295.33,1774.25 1299.66,1776.41 1304.5,1777.5C 1304.5,1778.5 1304.5,1779.5 1304.5,1780.5C 1308.24,1779.6 1310.24,1780.93 1310.5,1784.5C 1313.92,1785.05 1317.09,1786.39 1320,1788.5C 1323.47,1787.07 1323.97,1787.57 1321.5,1790C 1323.17,1790.33 1324.83,1790.67 1326.5,1791C 1329.17,1793.33 1331.83,1795.67 1334.5,1798C 1336.47,1798.5 1338.47,1798.66 1340.5,1798.5C 1342.08,1801.64 1342.75,1804.81 1342.5,1808C 1339.88,1808.94 1337.21,1809.77 1334.5,1810.5C 1333.15,1812.66 1331.15,1813.99 1328.5,1814.5C 1328.71,1815.09 1329.04,1815.59 1329.5,1816C 1325.29,1816.84 1321.29,1818.17 1317.5,1820C 1316.09,1822.88 1313.76,1824.55 1310.5,1825C 1311.83,1825.67 1311.83,1826.33 1310.5,1827C 1308.05,1827.29 1305.71,1827.96 1303.5,1829C 1303.83,1829.33 1304.17,1829.67 1304.5,1830C 1300.5,1831.67 1296.5,1833.33 1292.5,1835C 1292.83,1835.33 1293.17,1835.67 1293.5,1836C 1290.06,1838.11 1286.39,1839.78 1282.5,1841C 1279.74,1843.16 1277.07,1845.33 1274.5,1847.5C 1272.83,1848.17 1271.17,1848.83 1269.5,1849.5C 1269.71,1850.09 1270.04,1850.59 1270.5,1851C 1269.22,1851.68 1268.05,1851.52 1267,1850.5C 1266.01,1851.07 1265.17,1851.73 1264.5,1852.5C 1260.75,1855.24 1256.75,1857.58 1252.5,1859.5C 1253.33,1860.45 1253.49,1861.45 1253,1862.5C 1251.27,1861.42 1249.44,1861.26 1247.5,1862C 1248.17,1862.33 1248.83,1862.67 1249.5,1863C 1245.37,1863.56 1242.03,1865.4 1239.5,1868.5C 1234.6,1870.6 1229.93,1873.1 1225.5,1876C 1220.17,1876.67 1214.83,1876.67 1209.5,1876C 1206.69,1873.5 1203.35,1872.17 1199.5,1872C 1200.17,1871.33 1200.83,1870.67 1201.5,1870C 1197.12,1869.29 1193.46,1867.29 1190.5,1864C 1189.17,1863.67 1187.83,1863.33 1186.5,1863C 1186.83,1862.67 1187.17,1862.33 1187.5,1862C 1185.83,1861.67 1184.17,1861.33 1182.5,1861C 1183.83,1860.33 1183.83,1859.67 1182.5,1859C 1180.87,1858.51 1179.2,1858.34 1177.5,1858.5C 1177.72,1857.32 1177.39,1856.32 1176.5,1855.5C 1173.12,1853.28 1169.45,1851.78 1165.5,1851C 1166.83,1850.33 1166.83,1849.67 1165.5,1849C 1163.74,1848.8 1162.08,1848.3 1160.5,1847.5C 1157.93,1845.33 1155.26,1843.16 1152.5,1841C 1145.91,1839.06 1140.25,1835.72 1135.5,1831C 1132.27,1828.59 1128.6,1826.93 1124.5,1826C 1124.83,1825.67 1125.17,1825.33 1125.5,1825C 1122.62,1824.56 1119.96,1823.56 1117.5,1822C 1118.83,1821.33 1118.83,1820.67 1117.5,1820C 1113.75,1818.06 1109.75,1816.73 1105.5,1816C 1107.3,1815.68 1107.63,1815.02 1106.5,1814C 1101.65,1810.75 1096.32,1808.25 1090.5,1806.5C 1089.29,1805.73 1089.29,1804.89 1090.5,1804C 1085.46,1801.15 1080.13,1798.82 1074.5,1797C 1074.83,1796.67 1075.17,1796.33 1075.5,1796C 1074.22,1795.32 1073.05,1795.48 1072,1796.5C 1071.38,1795.55 1071.55,1794.72 1072.5,1794C 1068.91,1793.26 1066.08,1791.42 1064,1788.5C 1063.59,1788.96 1063.09,1789.29 1062.5,1789.5C 1060.37,1785.77 1057.37,1784.27 1053.5,1785C 1053.96,1784.59 1054.29,1784.09 1054.5,1783.5C 1052.89,1782.68 1051.23,1782.01 1049.5,1781.5C 1048.61,1780.68 1048.28,1779.68 1048.5,1778.5C 1043.05,1775.95 1037.38,1773.62 1031.5,1771.5C 1030.61,1770.68 1030.28,1769.68 1030.5,1768.5C 1024.48,1765.73 1018.48,1762.89 1012.5,1760C 1013.17,1759.67 1013.83,1759.33 1014.5,1759C 1006.81,1755.15 999.145,1751.15 991.5,1747C 990.833,1746 990.167,1745 989.5,1744C 985.578,1742.41 981.578,1740.91 977.5,1739.5C 977.709,1738.91 978.043,1738.41 978.5,1738C 972.713,1734.71 966.713,1731.71 960.5,1729C 960.833,1728.67 961.167,1728.33 961.5,1728C 960.167,1727.67 958.833,1727.33 957.5,1727C 952.147,1721.65 945.814,1717.98 938.5,1716C 937.663,1714.99 937.33,1713.82 937.5,1712.5C 936.127,1712.66 934.793,1712.49 933.5,1712C 922.782,1705.47 911.948,1698.97 901,1692.5C 899.85,1691.58 898.85,1691.58 898,1692.5C 894.589,1688.12 890.089,1685.28 884.5,1684C 885.833,1683.33 885.833,1682.67 884.5,1682C 881.441,1681.94 879.108,1680.61 877.5,1678C 873.996,1676.15 870.33,1674.82 866.5,1674C 866.957,1673.59 867.291,1673.09 867.5,1672.5C 863.603,1669.93 859.603,1667.43 855.5,1665C 853.376,1663.42 851.21,1663.25 849,1664.5C 848.544,1663.26 849.044,1662.42 850.5,1662C 848.833,1661.67 847.167,1661.33 845.5,1661C 839.137,1655.47 832.47,1651.47 825.5,1649C 826.833,1648.33 826.833,1647.67 825.5,1647C 822.39,1646.95 820.056,1645.61 818.5,1643C 817.216,1642.32 816.049,1642.48 815,1643.5C 814.383,1642.55 814.549,1641.72 815.5,1641C 813.833,1640.67 812.167,1640.33 810.5,1640C 805.431,1634.46 799.097,1630.96 791.5,1629.5C 790.289,1628.73 790.289,1627.89 791.5,1627C 787.563,1625.3 783.896,1623.13 780.5,1620.5C 779.28,1619.29 778.113,1619.29 777,1620.5C 776.395,1618.52 775.395,1618.19 774,1619.5C 771.904,1618.28 772.071,1617.45 774.5,1617C 771.201,1616.25 768.534,1614.58 766.5,1612C 763.204,1610.49 759.871,1609.32 756.5,1608.5C 756.5,1607.5 756.5,1606.5 756.5,1605.5C 752.759,1606.4 750.759,1605.07 750.5,1601.5C 747.069,1600.93 743.902,1599.6 741,1597.5C 738.634,1598.94 738.134,1598.44 739.5,1596C 736.175,1596.22 733.842,1594.89 732.5,1592C 730.047,1591.27 727.714,1590.27 725.5,1589C 725.833,1588.67 726.167,1588.33 726.5,1588C 724.5,1587.67 722.5,1587.33 720.5,1587C 721.833,1586.33 721.833,1585.67 720.5,1585C 718.392,1584.64 716.392,1583.97 714.5,1583C 714.833,1582.67 715.167,1582.33 715.5,1582C 712.804,1581.32 710.471,1580.15 708.5,1578.5C 707.329,1577.66 705.995,1576.99 704.5,1576.5C 694.815,1569.68 684.982,1563.68 675,1558.5C 674.648,1507.79 674.315,1457.13 674,1406.5C 679.833,1409 685.667,1411.5 691.5,1414C 690.346,1414.91 690.513,1415.75 692,1416.5C 692.718,1415.55 693.551,1415.38 694.5,1416C 695.328,1416.91 696.328,1417.58 697.5,1418C 697.167,1418.33 696.833,1418.67 696.5,1419C 700.115,1419.61 702.949,1421.45 705,1424.5C 707.96,1421.61 708.794,1421.94 707.5,1425.5C 709.423,1426.31 711.423,1426.81 713.5,1427C 715.582,1429.42 717.915,1431.59 720.5,1433.5C 724.5,1435.33 728.5,1437.17 732.5,1439C 732.167,1439.33 731.833,1439.67 731.5,1440C 734.229,1440 736.229,1441.17 737.5,1443.5C 741.116,1444.64 744.45,1446.31 747.5,1448.5C 749.529,1447.37 749.863,1447.87 748.5,1450C 752.184,1449.76 754.851,1451.26 756.5,1454.5C 765.155,1458.52 773.155,1463.35 780.5,1469C 781.784,1469.68 782.951,1469.52 784,1468.5C 784.617,1469.45 784.451,1470.28 783.5,1471C 786.825,1470.78 789.158,1472.11 790.5,1475C 800.172,1479.71 809.505,1484.88 818.5,1490.5 Z"/></g>
<g><path style="opacity:0.004" fill="#fecd00" d="M 1753.5,1412.5 C 1754.83,1413.17 1754.83,1413.17 1753.5,1412.5 Z"/></g>
<g><path style="opacity:0.819" fill="#fecd00" d="M 1661.5,1469.5 C 1665.07,1467.88 1668.74,1466.54 1672.5,1465.5C 1672.33,1464.18 1672.66,1463.01 1673.5,1462C 1675.61,1461.64 1677.61,1460.97 1679.5,1460C 1678.04,1459.58 1677.54,1458.74 1678,1457.5C 1679.39,1458.55 1680.89,1458.72 1682.5,1458C 1686.07,1455.95 1689.41,1453.62 1692.5,1451C 1693.83,1450.67 1695.17,1450.33 1696.5,1450C 1696.17,1449.67 1695.83,1449.33 1695.5,1449C 1701.6,1446.16 1707.6,1443.33 1713.5,1440.5C 1713.33,1439.18 1713.66,1438.01 1714.5,1437C 1718.01,1436.47 1721.34,1435.47 1724.5,1434C 1725.17,1433 1725.83,1432 1726.5,1431C 1730.44,1428.53 1734.44,1426.36 1738.5,1424.5C 1742.65,1421.92 1746.65,1419.09 1750.5,1416C 1752.98,1415.58 1755.31,1414.74 1757.5,1413.5C 1759.13,1414.05 1760.8,1414.38 1762.5,1414.5C 1762.51,1416.31 1762.01,1417.98 1761,1419.5C 1760.83,1439.17 1760.67,1458.83 1760.5,1478.5C 1760.52,1498.78 1761.18,1518.94 1762.5,1539C 1762.14,1540.22 1761.64,1541.39 1761,1542.5C 1760.67,1542.17 1760.33,1541.83 1760,1541.5C 1758.33,1542.17 1756.67,1542.83 1755,1543.5C 1752.9,1542.28 1753.07,1541.45 1755.5,1541C 1753.61,1540.03 1751.61,1539.36 1749.5,1539C 1748.66,1537.99 1748.33,1536.82 1748.5,1535.5C 1745.04,1534.85 1741.87,1533.52 1739,1531.5C 1735.89,1532.67 1735.72,1532.17 1738.5,1530C 1733.71,1527.48 1728.71,1525.14 1723.5,1523C 1723.83,1522.67 1724.17,1522.33 1724.5,1522C 1723.17,1521.67 1721.83,1521.33 1720.5,1521C 1720.83,1520.67 1721.17,1520.33 1721.5,1520C 1718.06,1519.78 1715.39,1518.28 1713.5,1515.5C 1708.69,1512.45 1703.69,1509.79 1698.5,1507.5C 1697.61,1506.68 1697.28,1505.68 1697.5,1504.5C 1694.4,1504.91 1692.07,1503.74 1690.5,1501C 1687.71,1499.38 1684.71,1498.21 1681.5,1497.5C 1680.29,1496.73 1680.29,1495.89 1681.5,1495C 1678.51,1494.78 1675.85,1493.78 1673.5,1492C 1673.83,1491.67 1674.17,1491.33 1674.5,1491C 1671.5,1490.33 1669,1488.83 1667,1486.5C 1665.82,1487.73 1664.65,1487.73 1663.5,1486.5C 1663.71,1485.91 1664.04,1485.41 1664.5,1485C 1662.24,1484.76 1660.07,1484.26 1658,1483.5C 1656.06,1483.96 1654.72,1482.96 1654,1480.5C 1653.33,1478.17 1653.33,1475.83 1654,1473.5C 1656.85,1472.48 1659.35,1471.14 1661.5,1469.5 Z"/></g>
<g><path style="opacity:0.004" fill="#fecd00" d="M 672.5,1414.5 C 673.665,1461.33 673.832,1508.33 673,1555.5C 672.5,1508.5 672.333,1461.5 672.5,1414.5 Z"/></g>
<g><path style="opacity:0.004" fill="#fecd00" d="M 1738.5,1424.5 C 1737.76,1424.63 1737.09,1424.46 1736.5,1424C 1737.44,1423.31 1738.1,1423.47 1738.5,1424.5 Z"/></g>
<g><path style="opacity:0.004" fill="#fecd00" d="M 368.5,1442.5 C 369.833,1443.17 369.833,1443.17 368.5,1442.5 Z"/></g>
<g><path style="opacity:0.004" fill="#fecd00" d="M 1059.5,1442.5 C 1058.83,1443.17 1058.83,1443.17 1059.5,1442.5 Z"/></g>
<g><path style="opacity:0.004" fill="#fecd00" d="M 2060.5,1442.5 C 2061.83,1443.17 2061.83,1443.17 2060.5,1442.5 Z"/></g>
<g><path style="opacity:0.004" fill="#fecd00" d="M 372.5,1444.5 C 373.833,1445.17 373.833,1445.17 372.5,1444.5 Z"/></g>
<g><path style="opacity:0.004" fill="#fecd00" d="M 1661.5,1469.5 C 1660.83,1468.17 1660.83,1468.17 1661.5,1469.5 Z"/></g>
<g><path style="opacity:0.004" fill="#fecd00" d="M 818.5,1490.5 C 818.783,1489.71 819.283,1489.04 820,1488.5C 820.528,1489.82 820.028,1490.48 818.5,1490.5 Z"/></g>
<g><path style="opacity:0.004" fill="#fecd00" d="M 484.5,1510.5 C 485.833,1511.17 485.833,1511.17 484.5,1510.5 Z"/></g>
<g><path style="opacity:0.004" fill="#fecd00" d="M 1945.5,1510.5 C 1946.83,1511.17 1946.83,1511.17 1945.5,1510.5 Z"/></g>
<g><path style="opacity:0.004" fill="#fecd00" d="M 1459.5,1524.5 C 1460.83,1525.17 1460.83,1525.17 1459.5,1524.5 Z"/></g>
<g><path style="opacity:0.004" fill="#fecd00" d="M 1910.5,1531.5 C 1911.83,1532.17 1911.83,1532.17 1910.5,1531.5 Z"/></g>
<g><path style="opacity:0.004" fill="#fecd00" d="M 1511.5,1555.5 C 1512.83,1556.17 1512.83,1556.17 1511.5,1555.5 Z"/></g>
<g><path style="opacity:0.004" fill="#fecd00" d="M 599.5,1577.5 C 599.897,1576.47 600.563,1576.31 601.5,1577C 600.906,1577.46 600.239,1577.63 599.5,1577.5 Z"/></g>
<g><path style="opacity:0.004" fill="#fecd00" d="M 704.5,1576.5 C 704.631,1577.24 704.464,1577.91 704,1578.5C 703.308,1577.56 703.475,1576.9 704.5,1576.5 Z"/></g>
<g><path style="opacity:0.004" fill="#fecd00" d="M 708.5,1578.5 C 707.833,1579.17 707.833,1579.17 708.5,1578.5 Z"/></g>
<g><path style="opacity:0.004" fill="#fecd00" d="M 1605.5,1610.5 C 1606.53,1610.9 1606.69,1611.56 1606,1612.5C 1605.54,1611.91 1605.37,1611.24 1605.5,1610.5 Z"/></g>
<g><path style="opacity:0.004" fill="#fecd00" d="M 1057.5,1631.5 C 1058.83,1632.17 1058.83,1632.17 1057.5,1631.5 Z"/></g>
<g><path style="opacity:0.004" fill="#fecd00" d="M 1395.5,1642.5 C 1396.83,1643.17 1396.83,1643.17 1395.5,1642.5 Z"/></g>
<g><path style="opacity:0.004" fill="#fecd00" d="M 1507.5,1707.5 C 1508.68,1707.28 1509.68,1707.61 1510.5,1708.5C 1508.95,1709.8 1507.95,1709.46 1507.5,1707.5 Z"/></g>
<g><path style="opacity:0.004" fill="#fecd00" d="M 1245.5,1742.5 C 1246.83,1743.17 1246.83,1743.17 1245.5,1742.5 Z"/></g>
<g><path style="opacity:0.004" fill="#fecd00" d="M 1264.5,1852.5 C 1265.83,1853.17 1265.83,1853.17 1264.5,1852.5 Z"/></g>
<g><path style="opacity:0.753" fill="#fecd00" d="M 989.5,1941.5 C 1001.84,1941.33 1014.17,1941.5 1026.5,1942C 1030.9,1944.71 1035.57,1947.04 1040.5,1949C 1042.37,1950.5 1044.2,1952 1046,1953.5C 1046.8,1955.26 1046.63,1956.93 1045.5,1958.5C 1042.12,1962.06 1039.28,1966.06 1037,1970.5C 1035.59,1972.65 1033.76,1974.32 1031.5,1975.5C 1022.02,1968.26 1011.35,1965.43 999.5,1967C 996.353,1971.05 997.353,1973.71 1002.5,1975C 1015.2,1977.11 1027.2,1981.11 1038.5,1987C 1045.78,1992.26 1049.45,1999.43 1049.5,2008.5C 1048.36,2025.81 1039.36,2036.65 1022.5,2041C 1016.5,2041.33 1010.5,2041.67 1004.5,2042C 1025.93,2040.64 1043.43,2048.14 1057,2064.5C 1066.99,2083.54 1066.99,2102.54 1057,2121.5C 1054.05,2124.57 1051.22,2127.74 1048.5,2131C 1044.89,2132.94 1041.56,2135.28 1038.5,2138C 1035.04,2139.44 1031.71,2140.94 1028.5,2142.5C 1007.84,2143.5 987.177,2143.83 966.5,2143.5C 966.5,2109.5 966.5,2075.5 966.5,2041.5C 975.839,2041.67 985.173,2041.5 994.5,2041C 983.356,2038.51 973.189,2033.68 964,2026.5C 963.333,2024.83 963.333,2023.17 964,2021.5C 968.541,2016.96 972.707,2012.13 976.5,2007C 978.365,2005.7 980.365,2005.37 982.5,2006C 992.601,2014.44 1004.1,2017.28 1017,2014.5C 1018.3,2013.9 1019.13,2012.9 1019.5,2011.5C 1018.25,2009.54 1016.59,2008.04 1014.5,2007C 1003.23,2004.81 992.23,2001.47 981.5,1997C 962.587,1982.17 961.587,1966.17 978.5,1949C 982.286,1946.46 985.953,1943.96 989.5,1941.5 Z M 975.5,2050.5 C 992.97,2049.83 1010.3,2050.66 1027.5,2053C 1051.64,2063.43 1060.47,2081.6 1054,2107.5C 1048.09,2122.4 1037.26,2131.57 1021.5,2135C 1006.17,2135.5 990.837,2135.67 975.5,2135.5C 975.5,2107.17 975.5,2078.83 975.5,2050.5 Z M 1001.5,2074.5 C 1022.79,2071.95 1031.62,2081.29 1028,2102.5C 1023.05,2110.34 1015.89,2114.01 1006.5,2113.5C 1004.5,2113.17 1002.5,2112.83 1000.5,2112.5C 1001.48,2099.88 1001.81,2087.22 1001.5,2074.5 Z"/></g>
<g><path style="opacity:0.855" fill="#fecd00" d="M 1088.5,1941.5 C 1098.5,1941.5 1108.5,1941.5 1118.5,1941.5C 1121.83,1951.99 1125.66,1962.32 1130,1972.5C 1140.35,1994.32 1149.85,2016.15 1158.5,2038C 1158.72,2039.97 1157.89,2041.14 1156,2041.5C 1146.53,2040.7 1137.03,2040.2 1127.5,2040C 1125.37,2039.08 1124.7,2037.75 1125.5,2036C 1122.86,2032.23 1121.2,2028.06 1120.5,2023.5C 1108.83,2023.5 1097.17,2023.5 1085.5,2023.5C 1084.16,2028.53 1082.66,2033.53 1081,2038.5C 1080.25,2039.13 1079.42,2039.63 1078.5,2040C 1068.47,2040.24 1058.47,2040.74 1048.5,2041.5C 1048.19,2039.08 1048.53,2036.74 1049.5,2034.5C 1062.93,2003.72 1075.93,1972.72 1088.5,1941.5 Z M 1102.5,1981.5 C 1105.8,1986.74 1108.47,1992.41 1110.5,1998.5C 1105.2,1999.66 1099.86,1999.83 1094.5,1999C 1097.54,1993.36 1100.21,1987.53 1102.5,1981.5 Z"/></g>
<g><path style="opacity:0.837" fill="#fecd00" d="M 1163.5,1941.5 C 1173.5,1941.5 1183.5,1941.5 1193.5,1941.5C 1193.5,1965.17 1193.5,1988.83 1193.5,2012.5C 1208.5,2012.33 1223.5,2012.5 1238.5,2013C 1239.31,2020.09 1239.81,2027.25 1240,2034.5C 1253.42,2003.68 1266.25,1972.68 1278.5,1941.5C 1288.42,1941.18 1298.25,1941.51 1308,1942.5C 1321.65,1974.05 1335.15,2006.21 1348.5,2039C 1348.39,2040.28 1347.72,2041.11 1346.5,2041.5C 1336.55,2040.52 1326.55,2040.19 1316.5,2040.5C 1314.85,2034.71 1312.51,2029.21 1309.5,2024C 1298.5,2023.33 1287.5,2023.33 1276.5,2024C 1274.04,2029.24 1271.71,2034.57 1269.5,2040C 1259.97,2040.2 1250.47,2040.7 1241,2041.5C 1215.2,2040.68 1189.36,2040.18 1163.5,2040C 1162.17,2007.17 1162.17,1974.33 1163.5,1941.5 Z M 1292.5,1980.5 C 1295.55,1985.27 1297.72,1990.6 1299,1996.5C 1299.83,1997.33 1300.67,1998.17 1301.5,1999C 1296.14,1999.83 1290.8,1999.66 1285.5,1998.5C 1288.75,1992.89 1291.09,1986.89 1292.5,1980.5 Z"/></g>
<g><path style="opacity:0.922" fill="#fecd00" d="M 899.5,1953.5 C 908.833,1953.5 918.167,1953.5 927.5,1953.5C 927.5,2012.17 927.5,2070.83 927.5,2129.5C 918.167,2129.5 908.833,2129.5 899.5,2129.5C 899.5,2070.83 899.5,2012.17 899.5,1953.5 Z"/></g>
<g><path style="opacity:0.559" fill="#fecd00" d="M 1096.5,2041.5 C 1106.84,2041.33 1117.17,2041.5 1127.5,2042C 1142.88,2075.8 1157.21,2109.64 1170.5,2143.5C 1158.16,2143.67 1145.83,2143.5 1133.5,2143C 1130.83,2138.14 1128.83,2132.97 1127.5,2127.5C 1117.17,2127.5 1106.83,2127.5 1096.5,2127.5C 1094.99,2132.52 1093.33,2137.52 1091.5,2142.5C 1079.18,2143.5 1066.85,2143.83 1054.5,2143.5C 1054.34,2141.8 1054.51,2140.13 1055,2138.5C 1069.4,2106.36 1083.24,2074.03 1096.5,2041.5 Z M 1101.5,2050.5 C 1109.01,2050.04 1116.34,2050.54 1123.5,2052C 1123.17,2052.33 1122.83,2052.67 1122.5,2053C 1134.77,2079.01 1145.94,2105.17 1156,2131.5C 1157.02,2132.35 1157.86,2133.35 1158.5,2134.5C 1152.19,2135.66 1145.86,2135.83 1139.5,2135C 1137.76,2130.19 1135.76,2125.53 1133.5,2121C 1118.84,2120.5 1104.17,2120.33 1089.5,2120.5C 1088.01,2125.47 1086.68,2130.47 1085.5,2135.5C 1079.13,2135.83 1072.8,2135.5 1066.5,2134.5C 1078.08,2109.22 1088.91,2083.56 1099,2057.5C 1101.14,2055.68 1101.97,2053.35 1101.5,2050.5 Z M 1111.5,2089.5 C 1113.46,2091.81 1115.12,2094.48 1116.5,2097.5C 1113.55,2098.65 1110.55,2098.82 1107.5,2098C 1109.06,2095.26 1110.39,2092.43 1111.5,2089.5 Z"/></g>
<g><path style="opacity:0.677" fill="#fecd00" d="M 1299.5,2043.5 C 1307.21,2046.48 1315.21,2048.65 1323.5,2050C 1324.77,2052.14 1324.77,2054.31 1323.5,2056.5C 1317.02,2061.48 1310.69,2066.64 1304.5,2072C 1298.18,2072.5 1291.84,2072.67 1285.5,2072.5C 1285.19,2070.08 1285.53,2067.74 1286.5,2065.5C 1290.89,2058.13 1295.23,2050.8 1299.5,2043.5 Z"/></g>
<g><path style="opacity:0.865" fill="#fecd00" d="M 1483.5,2045.5 C 1491.84,2045.33 1500.17,2045.5 1508.5,2046C 1509,2046.5 1509.5,2047 1510,2047.5C 1522.28,2075.32 1533.94,2103.32 1545,2131.5C 1547.93,2134.92 1549.1,2138.92 1548.5,2143.5C 1538.49,2143.67 1528.49,2143.5 1518.5,2143C 1516.12,2137.97 1513.79,2132.97 1511.5,2128C 1500.83,2127.33 1490.17,2127.33 1479.5,2128C 1477.17,2133 1474.83,2138 1472.5,2143C 1454.84,2143.5 1437.17,2143.67 1419.5,2143.5C 1419.67,2132.49 1419.5,2121.49 1419,2110.5C 1415.6,2121.25 1409.1,2129.75 1399.5,2136C 1395.14,2138.38 1390.81,2140.71 1386.5,2143C 1366.84,2143.5 1347.17,2143.67 1327.5,2143.5C 1327.5,2111.5 1327.5,2079.5 1327.5,2047.5C 1345.5,2047.33 1363.5,2047.5 1381.5,2048C 1399.9,2052.07 1412.4,2062.9 1419,2080.5C 1419.5,2069.51 1419.67,2058.51 1419.5,2047.5C 1429.83,2047.5 1440.17,2047.5 1450.5,2047.5C 1450.17,2071.18 1450.5,2094.84 1451.5,2118.5C 1460.83,2095.83 1470.17,2073.16 1479.5,2050.5C 1480.15,2048.19 1481.49,2046.53 1483.5,2045.5 Z M 1357.5,2074.5 C 1376.2,2070.36 1387.2,2077.53 1390.5,2096C 1389.97,2107.19 1384.3,2114.19 1373.5,2117C 1368.14,2117.83 1362.8,2117.66 1357.5,2116.5C 1358.82,2102.5 1358.82,2088.5 1357.5,2074.5 Z M 1494.5,2085.5 C 1496.1,2086.74 1497.26,2088.4 1498,2090.5C 1499.19,2094.6 1500.69,2098.6 1502.5,2102.5C 1497.53,2103.66 1492.53,2103.83 1487.5,2103C 1491.38,2097.77 1493.71,2091.94 1494.5,2085.5 Z"/></g>
<g><path style="opacity:0.862" fill="#fecd00" d="M 1174.5,2047.5 C 1185.17,2047.5 1195.83,2047.5 1206.5,2047.5C 1212.39,2058.95 1219.06,2069.95 1226.5,2080.5C 1233.5,2070.14 1240.16,2059.48 1246.5,2048.5C 1257.15,2047.5 1267.81,2047.17 1278.5,2047.5C 1278.5,2079.5 1278.5,2111.5 1278.5,2143.5C 1268.17,2143.5 1257.83,2143.5 1247.5,2143.5C 1247.4,2128.12 1247.57,2112.79 1248,2097.5C 1241.61,2106.23 1235.61,2115.23 1230,2124.5C 1229.25,2125.99 1228.09,2126.99 1226.5,2127.5C 1224.26,2126.41 1222.42,2124.74 1221,2122.5C 1215.41,2114.31 1210.07,2105.98 1205,2097.5C 1204.5,2112.83 1204.33,2128.16 1204.5,2143.5C 1194.5,2143.5 1184.5,2143.5 1174.5,2143.5C 1174.5,2111.5 1174.5,2079.5 1174.5,2047.5 Z"/></g>
<g><path style="opacity:0.565" fill="#fecd00" d="M 993.5,2065.5 C 1001.51,2065.33 1009.51,2065.5 1017.5,2066C 1034.57,2072.29 1041.07,2084.46 1037,2102.5C 1032.86,2113.97 1024.69,2120.14 1012.5,2121C 1006.18,2121.5 999.842,2121.67 993.5,2121.5C 993.5,2102.83 993.5,2084.17 993.5,2065.5 Z M 1001.5,2074.5 C 1001.81,2087.22 1001.48,2099.88 1000.5,2112.5C 1002.5,2112.83 1004.5,2113.17 1006.5,2113.5C 1015.89,2114.01 1023.05,2110.34 1028,2102.5C 1031.62,2081.29 1022.79,2071.95 1001.5,2074.5 Z"/></g>
<g><path style="opacity:0.553" fill="#fecd00" d="M 1109.5,2069.5 C 1111.17,2069.5 1112.83,2069.5 1114.5,2069.5C 1118.25,2079.89 1122.25,2090.22 1126.5,2100.5C 1127.47,2102.74 1127.81,2105.08 1127.5,2107.5C 1117.17,2107.5 1106.83,2107.5 1096.5,2107.5C 1096.34,2105.47 1096.5,2103.47 1097,2101.5C 1102.07,2091.13 1106.23,2080.46 1109.5,2069.5 Z M 1111.5,2089.5 C 1110.39,2092.43 1109.06,2095.26 1107.5,2098C 1110.55,2098.82 1113.55,2098.65 1116.5,2097.5C 1115.12,2094.48 1113.46,2091.81 1111.5,2089.5 Z"/></g>
<g><path style="opacity:0.814" fill="#fecd00" d="M 1287.5,2077.5 C 1297.75,2077.18 1307.92,2077.51 1318,2078.5C 1318.5,2100.16 1318.67,2121.83 1318.5,2143.5C 1308.17,2143.5 1297.83,2143.5 1287.5,2143.5C 1287.5,2121.5 1287.5,2099.5 1287.5,2077.5 Z"/></g>
</svg>
