<svg version="1.0" xmlns="http://www.w3.org/2000/svg"
 width="30px" height="30px" viewBox="0 0 656.000000 656.000000"
 preserveAspectRatio="xMidYMid meet">
<g transform="translate(0.000000,656.000000) scale(0.100000,-0.100000)" icon = "tiktok"
fill="White" stroke="none">
<path d="M3070 6544 c-19 -2 -84 -9 -145 -15 -281 -28 -582 -102 -851 -209
-1059 -422 -1828 -1364 -2023 -2480 -11 -63 -26 -162 -33 -220 -17 -136 -17
-564 0 -700 39 -315 107 -592 212 -856 402 -1010 1280 -1760 2335 -1994 267
-59 329 -65 715 -65 386 0 448 6 715 65 865 192 1618 732 2088 1496 127 207
261 507 332 739 384 1267 -17 2625 -1025 3474 -489 411 -1062 661 -1711 747
-108 14 -534 27 -609 18z m630 -453 c1150 -176 2076 -1021 2351 -2146 59 -241
73 -372 73 -675 0 -303 -14 -434 -73 -675 -253 -1033 -1063 -1843 -2096 -2096
-241 -59 -372 -73 -675 -73 -303 0 -434 14 -675 73 -1033 253 -1843 1063
-2096 2096 -59 241 -73 372 -73 675 0 303 14 434 73 675 276 1127 1218 1984
2356 2145 197 28 204 28 465 25 173 -3 270 -9 370 -24z"/>
<path d="M2992 5005 c-583 -89 -1082 -482 -1306 -1027 -96 -232 -139 -519
-117 -763 40 -418 202 -765 492 -1053 244 -241 524 -387 877 -459 135 -28 491
-25 627 5 450 99 819 348 1066 717 118 176 200 374 246 594 24 112 27 148 27
326 1 170 -3 217 -22 313 -98 485 -375 880 -794 1131 -153 92 -330 160 -525
201 -130 28 -434 36 -571 15z m369 -215 c194 -19 337 -59 514 -145 317 -153
577 -434 704 -760 81 -207 106 -357 98 -594 -4 -140 -10 -184 -35 -281 -72
-281 -195 -497 -392 -690 -393 -385 -951 -514 -1471 -340 -211 70 -377 171
-541 329 -217 208 -352 450 -420 752 -32 147 -33 425 0 576 63 292 188 519
402 734 219 220 481 356 775 403 166 27 230 29 366 16z"/>
<path d="M3280 4313 c1 -5 -1 -317 -2 -694 l-4 -687 -30 -58 c-107 -210 -407
-206 -515 6 -31 61 -32 166 -3 231 26 55 79 111 137 141 34 19 58 23 130 23
l87 0 0 151 0 151 -45 6 c-59 9 -183 -9 -254 -35 -226 -85 -390 -315 -391
-551 0 -116 53 -262 132 -365 49 -64 92 -98 178 -145 112 -60 161 -72 295 -71
103 0 129 4 187 26 196 74 334 223 383 413 12 48 15 133 15 447 0 213 2 388 4
388 2 0 28 -16 57 -35 101 -66 281 -125 384 -125 l35 0 2 110 c1 61 2 129 3
153 l0 42 -55 6 c-222 24 -397 198 -424 422 l-7 57 -150 0 c-82 0 -149 -3
-149 -7z"/>
</g>
</svg>